<svg width="300" height="530" viewBox="0 0 300 530" fill="none" xmlns="http://www.w3.org/2000/svg">
<path d="M20.96 16.2V19.92H13.56V44H9V19.92H1.56V16.2H20.96ZM44.6181 21.96L31.0981 54.36H26.3781L30.8581 43.64L22.1781 21.96H27.2581L33.4581 38.76L39.8981 21.96H44.6181ZM51.8194 25.2C52.5927 24.1867 53.646 23.3333 54.9794 22.64C56.3127 21.9467 57.8194 21.6 59.4994 21.6C61.4194 21.6 63.166 22.08 64.7394 23.04C66.3394 23.9733 67.5927 25.2933 68.4994 27C69.406 28.7067 69.8594 30.6667 69.8594 32.88C69.8594 35.0933 69.406 37.08 68.4994 38.84C67.5927 40.5733 66.3394 41.9333 64.7394 42.92C63.166 43.88 61.4194 44.36 59.4994 44.36C57.8194 44.36 56.326 44.0267 55.0194 43.36C53.7127 42.6667 52.646 41.8133 51.8194 40.8V54.48H47.2594V21.96H51.8194V25.2ZM65.2194 32.88C65.2194 31.36 64.8994 30.0533 64.2594 28.96C63.646 27.84 62.8194 27 61.7794 26.44C60.766 25.8533 59.6727 25.56 58.4994 25.56C57.3527 25.56 56.2594 25.8533 55.2194 26.44C54.206 27.0267 53.3794 27.88 52.7394 29C52.126 30.12 51.8194 31.44 51.8194 32.96C51.8194 34.48 52.126 35.8133 52.7394 36.96C53.3794 38.08 54.206 38.9333 55.2194 39.52C56.2594 40.1067 57.3527 40.4 58.4994 40.4C59.6727 40.4 60.766 40.1067 61.7794 39.52C62.8194 38.9067 63.646 38.0267 64.2594 36.88C64.8994 35.7333 65.2194 34.4 65.2194 32.88ZM83.1287 44.36C81.0487 44.36 79.1687 43.8933 77.4887 42.96C75.8087 42 74.4887 40.6667 73.5287 38.96C72.5687 37.2267 72.0887 35.2267 72.0887 32.96C72.0887 30.72 72.5821 28.7333 73.5687 27C74.5554 25.2667 75.9021 23.9333 77.6087 23C79.3154 22.0667 81.2221 21.6 83.3287 21.6C85.4354 21.6 87.3421 22.0667 89.0487 23C90.7554 23.9333 92.1021 25.2667 93.0887 27C94.0754 28.7333 94.5687 30.72 94.5687 32.96C94.5687 35.2 94.0621 37.1867 93.0487 38.92C92.0354 40.6533 90.6488 42 88.8887 42.96C87.1554 43.8933 85.2354 44.36 83.1287 44.36ZM83.1287 40.4C84.3021 40.4 85.3954 40.12 86.4087 39.56C87.4487 39 88.2887 38.16 88.9287 37.04C89.5687 35.92 89.8887 34.56 89.8887 32.96C89.8887 31.36 89.5821 30.0133 88.9687 28.92C88.3554 27.8 87.5421 26.96 86.5287 26.4C85.5154 25.84 84.4221 25.56 83.2487 25.56C82.0754 25.56 80.9821 25.84 79.9687 26.4C78.9821 26.96 78.1954 27.8 77.6087 28.92C77.0221 30.0133 76.7287 31.36 76.7287 32.96C76.7287 35.3333 77.3287 37.1733 78.5287 38.48C79.7554 39.76 81.2887 40.4 83.1287 40.4ZM107.157 21.6C108.863 21.6 110.37 21.9467 111.677 22.64C113.01 23.3067 114.05 24.1467 114.797 25.16V21.96H119.397V44.36C119.397 46.3867 118.97 48.1867 118.117 49.76C117.263 51.36 116.023 52.6133 114.397 53.52C112.797 54.4267 110.877 54.88 108.637 54.88C105.65 54.88 103.17 54.1733 101.197 52.76C99.2232 51.3733 98.1032 49.48 97.8366 47.08H102.357C102.703 48.2267 103.437 49.1467 104.557 49.84C105.703 50.56 107.063 50.92 108.637 50.92C110.477 50.92 111.957 50.36 113.077 49.24C114.223 48.12 114.797 46.4933 114.797 44.36V40.68C114.023 41.72 112.97 42.6 111.637 43.32C110.33 44.0133 108.837 44.36 107.157 44.36C105.237 44.36 103.477 43.88 101.877 42.92C100.303 41.9333 99.0499 40.5733 98.1166 38.84C97.2099 37.08 96.7566 35.0933 96.7566 32.88C96.7566 30.6667 97.2099 28.7067 98.1166 27C99.0499 25.2933 100.303 23.9733 101.877 23.04C103.477 22.08 105.237 21.6 107.157 21.6ZM114.797 32.96C114.797 31.44 114.477 30.12 113.837 29C113.223 27.88 112.41 27.0267 111.397 26.44C110.383 25.8533 109.29 25.56 108.117 25.56C106.943 25.56 105.85 25.8533 104.837 26.44C103.823 27 102.997 27.84 102.357 28.96C101.743 30.0533 101.437 31.36 101.437 32.88C101.437 34.4 101.743 35.7333 102.357 36.88C102.997 38.0267 103.823 38.9067 104.837 39.52C105.877 40.1067 106.97 40.4 108.117 40.4C109.29 40.4 110.383 40.1067 111.397 39.52C112.41 38.9333 113.223 38.08 113.837 36.96C114.477 35.8133 114.797 34.48 114.797 32.96ZM129.146 25.16C129.813 24.04 130.693 23.1733 131.786 22.56C132.906 21.92 134.226 21.6 135.746 21.6V26.32H134.586C132.799 26.32 131.439 26.7733 130.506 27.68C129.599 28.5867 129.146 30.16 129.146 32.4V44H124.586V21.96H129.146V25.16ZM137.617 32.88C137.617 30.6667 138.071 28.7067 138.977 27C139.911 25.2933 141.164 23.9733 142.737 23.04C144.337 22.08 146.097 21.6 148.017 21.6C149.751 21.6 151.257 21.9467 152.537 22.64C153.844 23.3067 154.884 24.1467 155.657 25.16V21.96H160.257V44H155.657V40.72C154.884 41.76 153.831 42.6267 152.497 43.32C151.164 44.0133 149.644 44.36 147.937 44.36C146.044 44.36 144.311 43.88 142.737 42.92C141.164 41.9333 139.911 40.5733 138.977 38.84C138.071 37.08 137.617 35.0933 137.617 32.88ZM155.657 32.96C155.657 31.44 155.337 30.12 154.697 29C154.084 27.88 153.271 27.0267 152.257 26.44C151.244 25.8533 150.151 25.56 148.977 25.56C147.804 25.56 146.711 25.8533 145.697 26.44C144.684 27 143.857 27.84 143.217 28.96C142.604 30.0533 142.297 31.36 142.297 32.88C142.297 34.4 142.604 35.7333 143.217 36.88C143.857 38.0267 144.684 38.9067 145.697 39.52C146.737 40.1067 147.831 40.4 148.977 40.4C150.151 40.4 151.244 40.1067 152.257 39.52C153.271 38.9333 154.084 38.08 154.697 36.96C155.337 35.8133 155.657 34.48 155.657 32.96ZM170.007 25.2C170.78 24.1867 171.834 23.3333 173.167 22.64C174.5 21.9467 176.007 21.6 177.687 21.6C179.607 21.6 181.354 22.08 182.927 23.04C184.527 23.9733 185.78 25.2933 186.687 27C187.594 28.7067 188.047 30.6667 188.047 32.88C188.047 35.0933 187.594 37.08 186.687 38.84C185.78 40.5733 184.527 41.9333 182.927 42.92C181.354 43.88 179.607 44.36 177.687 44.36C176.007 44.36 174.514 44.0267 173.207 43.36C171.9 42.6667 170.834 41.8133 170.007 40.8V54.48H165.447V21.96H170.007V25.2ZM183.407 32.88C183.407 31.36 183.087 30.0533 182.447 28.96C181.834 27.84 181.007 27 179.967 26.44C178.954 25.8533 177.86 25.56 176.687 25.56C175.54 25.56 174.447 25.8533 173.407 26.44C172.394 27.0267 171.567 27.88 170.927 29C170.314 30.12 170.007 31.44 170.007 32.96C170.007 34.48 170.314 35.8133 170.927 36.96C171.567 38.08 172.394 38.9333 173.407 39.52C174.447 40.1067 175.54 40.4 176.687 40.4C177.86 40.4 178.954 40.1067 179.967 39.52C181.007 38.9067 181.834 38.0267 182.447 36.88C183.087 35.7333 183.407 34.4 183.407 32.88ZM203.156 21.6C204.836 21.6 206.33 21.96 207.636 22.68C208.97 23.4 210.01 24.4667 210.756 25.88C211.53 27.2933 211.916 29 211.916 31V44H207.396V31.68C207.396 29.7067 206.903 28.2 205.916 27.16C204.93 26.0933 203.583 25.56 201.876 25.56C200.17 25.56 198.81 26.0933 197.796 27.16C196.81 28.2 196.316 29.7067 196.316 31.68V44H191.756V14.4H196.316V24.52C197.09 23.5867 198.063 22.8667 199.236 22.36C200.436 21.8533 201.743 21.6 203.156 21.6ZM236.773 21.96L223.253 54.36H218.533L223.013 43.64L214.333 21.96H219.413L225.613 38.76L232.053 21.96H236.773Z" fill="#1F1F1F"/>
<line y1="91.5" x2="300" y2="91.5" stroke="#8F8F8F"/>
<path d="M11.856 146.592H4.872L3.672 150H0.816L6.792 133.296H9.96L15.936 150H13.056L11.856 146.592ZM11.088 144.36L8.376 136.608L5.64 144.36H11.088ZM20.7904 132.24V150H18.0544V132.24H20.7904ZM26.6385 138.72C27.1025 138.112 27.7345 137.6 28.5345 137.184C29.3345 136.768 30.2385 136.56 31.2465 136.56C32.3985 136.56 33.4465 136.848 34.3905 137.424C35.3505 137.984 36.1025 138.776 36.6465 139.8C37.1905 140.824 37.4625 142 37.4625 143.328C37.4625 144.656 37.1905 145.848 36.6465 146.904C36.1025 147.944 35.3505 148.76 34.3905 149.352C33.4465 149.928 32.3985 150.216 31.2465 150.216C30.2385 150.216 29.3425 150.016 28.5585 149.616C27.7745 149.2 27.1345 148.688 26.6385 148.08V156.288H23.9025V136.776H26.6385V138.72ZM34.6785 143.328C34.6785 142.416 34.4865 141.632 34.1025 140.976C33.7345 140.304 33.2385 139.8 32.6145 139.464C32.0065 139.112 31.3505 138.936 30.6465 138.936C29.9585 138.936 29.3025 139.112 28.6785 139.464C28.0705 139.816 27.5745 140.328 27.1905 141C26.8225 141.672 26.6385 142.464 26.6385 143.376C26.6385 144.288 26.8225 145.088 27.1905 145.776C27.5745 146.448 28.0705 146.96 28.6785 147.312C29.3025 147.664 29.9585 147.84 30.6465 147.84C31.3505 147.84 32.0065 147.664 32.6145 147.312C33.2385 146.944 33.7345 146.416 34.1025 145.728C34.4865 145.04 34.6785 144.24 34.6785 143.328ZM46.5281 136.56C47.5361 136.56 48.4321 136.776 49.2161 137.208C50.0161 137.64 50.6401 138.28 51.0881 139.128C51.5521 139.976 51.7841 141 51.7841 142.2V150H49.0721V142.608C49.0721 141.424 48.7761 140.52 48.1841 139.896C47.5921 139.256 46.7841 138.936 45.7601 138.936C44.7361 138.936 43.9201 139.256 43.3121 139.896C42.7201 140.52 42.4241 141.424 42.4241 142.608V150H39.6881V132.24H42.4241V138.312C42.8881 137.752 43.4721 137.32 44.1761 137.016C44.8961 136.712 45.6801 136.56 46.5281 136.56ZM53.8821 143.328C53.8821 142 54.1541 140.824 54.6981 139.8C55.2581 138.776 56.0101 137.984 56.9541 137.424C57.9141 136.848 58.9701 136.56 60.1221 136.56C61.1621 136.56 62.0661 136.768 62.8341 137.184C63.6181 137.584 64.2421 138.088 64.7061 138.696V136.776H67.4661V150H64.7061V148.032C64.2421 148.656 63.6101 149.176 62.8101 149.592C62.0101 150.008 61.0981 150.216 60.0741 150.216C58.9381 150.216 57.8981 149.928 56.9541 149.352C56.0101 148.76 55.2581 147.944 54.6981 146.904C54.1541 145.848 53.8821 144.656 53.8821 143.328ZM64.7061 143.376C64.7061 142.464 64.5141 141.672 64.1301 141C63.7621 140.328 63.2741 139.816 62.6661 139.464C62.0581 139.112 61.4021 138.936 60.6981 138.936C59.9941 138.936 59.3381 139.112 58.7301 139.464C58.1221 139.8 57.6261 140.304 57.2421 140.976C56.8741 141.632 56.6901 142.416 56.6901 143.328C56.6901 144.24 56.8741 145.04 57.2421 145.728C57.6261 146.416 58.1221 146.944 58.7301 147.312C59.3541 147.664 60.0101 147.84 60.6981 147.84C61.4021 147.84 62.0581 147.664 62.6661 147.312C63.2741 146.96 63.7621 146.448 64.1301 145.776C64.5141 145.088 64.7061 144.288 64.7061 143.376ZM73.3157 138.744C73.7797 138.104 74.4117 137.584 75.2117 137.184C76.0277 136.768 76.9317 136.56 77.9237 136.56C79.0917 136.56 80.1477 136.84 81.0917 137.4C82.0357 137.96 82.7797 138.76 83.3237 139.8C83.8677 140.824 84.1397 142 84.1397 143.328C84.1397 144.656 83.8677 145.848 83.3237 146.904C82.7797 147.944 82.0277 148.76 81.0677 149.352C80.1237 149.928 79.0757 150.216 77.9237 150.216C76.8997 150.216 75.9877 150.016 75.1877 149.616C74.4037 149.216 73.7797 148.704 73.3157 148.08V150H70.5797V132.24H73.3157V138.744ZM81.3557 143.328C81.3557 142.416 81.1637 141.632 80.7797 140.976C80.4117 140.304 79.9157 139.8 79.2917 139.464C78.6837 139.112 78.0277 138.936 77.3237 138.936C76.6357 138.936 75.9797 139.112 75.3557 139.464C74.7477 139.816 74.2517 140.328 73.8677 141C73.4997 141.672 73.3157 142.464 73.3157 143.376C73.3157 144.288 73.4997 145.088 73.8677 145.776C74.2517 146.448 74.7477 146.96 75.3557 147.312C75.9797 147.664 76.6357 147.84 77.3237 147.84C78.0277 147.84 78.6837 147.664 79.2917 147.312C79.9157 146.944 80.4117 146.416 80.7797 145.728C81.1637 145.04 81.3557 144.24 81.3557 143.328ZM98.4853 143.064C98.4853 143.56 98.4533 144.008 98.3893 144.408H88.2853C88.3653 145.464 88.7573 146.312 89.4613 146.952C90.1653 147.592 91.0293 147.912 92.0533 147.912C93.5253 147.912 94.5653 147.296 95.1733 146.064H98.1253C97.7253 147.28 96.9973 148.28 95.9413 149.064C94.9013 149.832 93.6053 150.216 92.0533 150.216C90.7893 150.216 89.6533 149.936 88.6453 149.376C87.6533 148.8 86.8693 148 86.2933 146.976C85.7333 145.936 85.4533 144.736 85.4533 143.376C85.4533 142.016 85.7253 140.824 86.2693 139.8C86.8293 138.76 87.6053 137.96 88.5973 137.4C89.6053 136.84 90.7573 136.56 92.0533 136.56C93.3013 136.56 94.4133 136.832 95.3893 137.376C96.3653 137.92 97.1253 138.688 97.6693 139.68C98.2133 140.656 98.4853 141.784 98.4853 143.064ZM95.6293 142.2C95.6133 141.192 95.2533 140.384 94.5493 139.776C93.8453 139.168 92.9733 138.864 91.9333 138.864C90.9893 138.864 90.1813 139.168 89.5093 139.776C88.8373 140.368 88.4373 141.176 88.3093 142.2H95.6293ZM103.89 139.008V146.328C103.89 146.824 104.002 147.184 104.226 147.408C104.466 147.616 104.866 147.72 105.426 147.72H107.106V150H104.946C103.714 150 102.77 149.712 102.114 149.136C101.458 148.56 101.13 147.624 101.13 146.328V139.008H99.5698V136.776H101.13V133.488H103.89V136.776H107.106V139.008H103.89ZM133.19 140.16V142.464H115.19V140.16H133.19ZM143.5 146.28C145.036 144.952 146.244 143.864 147.124 143.016C148.02 142.152 148.764 141.256 149.356 140.328C149.948 139.4 150.244 138.472 150.244 137.544C150.244 136.584 150.012 135.832 149.548 135.288C149.1 134.744 148.388 134.472 147.412 134.472C146.468 134.472 145.732 134.776 145.204 135.384C144.692 135.976 144.42 136.776 144.388 137.784H141.748C141.796 135.96 142.34 134.568 143.38 133.608C144.436 132.632 145.772 132.144 147.388 132.144C149.132 132.144 150.492 132.624 151.468 133.584C152.46 134.544 152.956 135.824 152.956 137.424C152.956 138.576 152.66 139.688 152.068 140.76C151.492 141.816 150.796 142.768 149.98 143.616C149.18 144.448 148.156 145.416 146.908 146.52L145.828 147.48H153.436V149.76H141.772V147.768L143.5 146.28ZM155.024 146.352V144.288L163.088 132.72H166.4V143.976H168.632V146.352H166.4V150H163.712V146.352H155.024ZM163.832 135.504L158.168 143.976H163.832V135.504Z" fill="#1F1F1F"/>
<path d="M16.14 184.1V198H13.86V188.48L9.62 198H8.04L3.78 188.48V198H1.5V184.1H3.96L8.84 195L13.7 184.1H16.14ZM17.9767 192.44C17.9767 191.333 18.2034 190.353 18.6567 189.5C19.1234 188.647 19.7501 187.987 20.5367 187.52C21.3367 187.04 22.2167 186.8 23.1767 186.8C24.0434 186.8 24.7967 186.973 25.4367 187.32C26.0901 187.653 26.6101 188.073 26.9967 188.58V186.98H29.2967V198H26.9967V196.36C26.6101 196.88 26.0834 197.313 25.4167 197.66C24.7501 198.007 23.9901 198.18 23.1367 198.18C22.1901 198.18 21.3234 197.94 20.5367 197.46C19.7501 196.967 19.1234 196.287 18.6567 195.42C18.2034 194.54 17.9767 193.547 17.9767 192.44ZM26.9967 192.48C26.9967 191.72 26.8367 191.06 26.5167 190.5C26.2101 189.94 25.8034 189.513 25.2967 189.22C24.7901 188.927 24.2434 188.78 23.6567 188.78C23.0701 188.78 22.5234 188.927 22.0167 189.22C21.5101 189.5 21.0967 189.92 20.7767 190.48C20.4701 191.027 20.3167 191.68 20.3167 192.44C20.3167 193.2 20.4701 193.867 20.7767 194.44C21.0967 195.013 21.5101 195.453 22.0167 195.76C22.5367 196.053 23.0834 196.2 23.6567 196.2C24.2434 196.2 24.7901 196.053 25.2967 195.76C25.8034 195.467 26.2101 195.04 26.5167 194.48C26.8367 193.907 26.9967 193.24 26.9967 192.48ZM33.0514 185.52C32.6381 185.52 32.2914 185.38 32.0114 185.1C31.7314 184.82 31.5914 184.473 31.5914 184.06C31.5914 183.647 31.7314 183.3 32.0114 183.02C32.2914 182.74 32.6381 182.6 33.0514 182.6C33.4514 182.6 33.7914 182.74 34.0714 183.02C34.3514 183.3 34.4914 183.647 34.4914 184.06C34.4914 184.473 34.3514 184.82 34.0714 185.1C33.7914 185.38 33.4514 185.52 33.0514 185.52ZM34.1714 186.98V198H31.8914V186.98H34.1714ZM42.3248 186.8C43.1915 186.8 43.9648 186.98 44.6448 187.34C45.3382 187.7 45.8782 188.233 46.2648 188.94C46.6515 189.647 46.8448 190.5 46.8448 191.5V198H44.5848V191.84C44.5848 190.853 44.3382 190.1 43.8448 189.58C43.3515 189.047 42.6782 188.78 41.8248 188.78C40.9715 188.78 40.2915 189.047 39.7848 189.58C39.2915 190.1 39.0448 190.853 39.0448 191.84V198H36.7648V186.98H39.0448V188.24C39.4182 187.787 39.8915 187.433 40.4648 187.18C41.0515 186.927 41.6715 186.8 42.3248 186.8ZM63.1284 184.1V185.96H59.4284V198H57.1484V185.96H53.4284V184.1H63.1284ZM66.1975 185.52C65.7842 185.52 65.4375 185.38 65.1575 185.1C64.8775 184.82 64.7375 184.473 64.7375 184.06C64.7375 183.647 64.8775 183.3 65.1575 183.02C65.4375 182.74 65.7842 182.6 66.1975 182.6C66.5975 182.6 66.9375 182.74 67.2175 183.02C67.4975 183.3 67.6375 183.647 67.6375 184.06C67.6375 184.473 67.4975 184.82 67.2175 185.1C66.9375 185.38 66.5975 185.52 66.1975 185.52ZM67.3175 186.98V198H65.0375V186.98H67.3175ZM72.5709 188.84V194.94C72.5709 195.353 72.6643 195.653 72.8509 195.84C73.0509 196.013 73.3843 196.1 73.8509 196.1H75.2509V198H73.4509C72.4243 198 71.6376 197.76 71.0909 197.28C70.5443 196.8 70.2709 196.02 70.2709 194.94V188.84H68.9709V186.98H70.2709V184.24H72.5709V186.98H75.2509V188.84H72.5709ZM79.2323 183.2V198H76.9523V183.2H79.2323ZM91.9258 192.22C91.9258 192.633 91.8991 193.007 91.8458 193.34H83.4258C83.4924 194.22 83.8191 194.927 84.4058 195.46C84.9924 195.993 85.7124 196.26 86.5658 196.26C87.7924 196.26 88.6591 195.747 89.1658 194.72H91.6258C91.2924 195.733 90.6858 196.567 89.8058 197.22C88.9391 197.86 87.8591 198.18 86.5658 198.18C85.5124 198.18 84.5658 197.947 83.7258 197.48C82.8991 197 82.2458 196.333 81.7658 195.48C81.2991 194.613 81.0658 193.613 81.0658 192.48C81.0658 191.347 81.2924 190.353 81.7458 189.5C82.2124 188.633 82.8591 187.967 83.6858 187.5C84.5258 187.033 85.4858 186.8 86.5658 186.8C87.6058 186.8 88.5324 187.027 89.3458 187.48C90.1591 187.933 90.7924 188.573 91.2458 189.4C91.6991 190.213 91.9258 191.153 91.9258 192.22ZM89.5458 191.5C89.5324 190.66 89.2324 189.987 88.6458 189.48C88.0591 188.973 87.3324 188.72 86.4658 188.72C85.6791 188.72 85.0058 188.973 84.4458 189.48C83.8858 189.973 83.5524 190.647 83.4458 191.5H89.5458ZM113.805 189.8V191.72H98.8048V189.8H113.805ZM122.397 194.9C123.677 193.793 124.683 192.887 125.417 192.18C126.163 191.46 126.783 190.713 127.277 189.94C127.77 189.167 128.017 188.393 128.017 187.62C128.017 186.82 127.823 186.193 127.437 185.74C127.063 185.287 126.47 185.06 125.657 185.06C124.87 185.06 124.257 185.313 123.817 185.82C123.39 186.313 123.163 186.98 123.137 187.82H120.937C120.977 186.3 121.43 185.14 122.297 184.34C123.177 183.527 124.29 183.12 125.637 183.12C127.09 183.12 128.223 183.52 129.037 184.32C129.863 185.12 130.277 186.187 130.277 187.52C130.277 188.48 130.03 189.407 129.537 190.3C129.057 191.18 128.477 191.973 127.797 192.68C127.13 193.373 126.277 194.18 125.237 195.1L124.337 195.9H130.677V197.8H120.957V196.14L122.397 194.9ZM132.28 190.52C132.28 188.213 132.666 186.413 133.44 185.12C134.226 183.813 135.573 183.16 137.48 183.16C139.386 183.16 140.726 183.813 141.5 185.12C142.286 186.413 142.68 188.213 142.68 190.52C142.68 192.853 142.286 194.68 141.5 196C140.726 197.307 139.386 197.96 137.48 197.96C135.573 197.96 134.226 197.307 133.44 196C132.666 194.68 132.28 192.853 132.28 190.52ZM140.44 190.52C140.44 189.44 140.366 188.527 140.22 187.78C140.086 187.033 139.806 186.427 139.38 185.96C138.953 185.48 138.32 185.24 137.48 185.24C136.64 185.24 136.006 185.48 135.58 185.96C135.153 186.427 134.866 187.033 134.72 187.78C134.586 188.527 134.52 189.44 134.52 190.52C134.52 191.64 134.586 192.58 134.72 193.34C134.853 194.1 135.133 194.713 135.56 195.18C136 195.647 136.64 195.88 137.48 195.88C138.32 195.88 138.953 195.647 139.38 195.18C139.82 194.713 140.106 194.1 140.24 193.34C140.373 192.58 140.44 191.64 140.44 190.52Z" fill="#1F1F1F"/>
<path d="M2.632 227.27V233.472C2.632 234.209 2.82333 234.765 3.206 235.138C3.598 235.511 4.13933 235.698 4.83 235.698C5.53 235.698 6.07133 235.511 6.454 235.138C6.846 234.765 7.042 234.209 7.042 233.472V227.27H8.638V233.444C8.638 234.237 8.46533 234.909 8.12 235.46C7.77467 236.011 7.31267 236.421 6.734 236.692C6.15533 236.963 5.516 237.098 4.816 237.098C4.116 237.098 3.47667 236.963 2.898 236.692C2.32867 236.421 1.876 236.011 1.54 235.46C1.204 234.909 1.036 234.237 1.036 233.444V227.27H2.632ZM13.236 237.126C12.6293 237.126 12.0833 237.019 11.598 236.804C11.122 236.58 10.744 236.281 10.464 235.908C10.184 235.525 10.0347 235.101 10.016 234.634H11.668C11.696 234.961 11.85 235.236 12.13 235.46C12.4193 235.675 12.7787 235.782 13.208 235.782C13.656 235.782 14.0013 235.698 14.244 235.53C14.496 235.353 14.622 235.129 14.622 234.858C14.622 234.569 14.482 234.354 14.202 234.214C13.9313 234.074 13.4973 233.92 12.9 233.752C12.3213 233.593 11.85 233.439 11.486 233.29C11.122 233.141 10.8047 232.912 10.534 232.604C10.2727 232.296 10.142 231.89 10.142 231.386C10.142 230.975 10.2633 230.602 10.506 230.266C10.7487 229.921 11.094 229.65 11.542 229.454C11.9993 229.258 12.522 229.16 13.11 229.16C13.9873 229.16 14.692 229.384 15.224 229.832C15.7653 230.271 16.0547 230.873 16.092 231.638H14.496C14.468 231.293 14.328 231.017 14.076 230.812C13.824 230.607 13.4833 230.504 13.054 230.504C12.634 230.504 12.312 230.583 12.088 230.742C11.864 230.901 11.752 231.111 11.752 231.372C11.752 231.577 11.8267 231.75 11.976 231.89C12.1253 232.03 12.3073 232.142 12.522 232.226C12.7367 232.301 13.054 232.399 13.474 232.52C14.034 232.669 14.4913 232.823 14.846 232.982C15.21 233.131 15.5227 233.355 15.784 233.654C16.0453 233.953 16.1807 234.349 16.19 234.844C16.19 235.283 16.0687 235.675 15.826 236.02C15.5833 236.365 15.238 236.636 14.79 236.832C14.3513 237.028 13.8333 237.126 13.236 237.126ZM24.7045 232.954C24.7045 233.243 24.6859 233.505 24.6485 233.738H18.7545C18.8012 234.354 19.0299 234.849 19.4405 235.222C19.8512 235.595 20.3552 235.782 20.9525 235.782C21.8112 235.782 22.4179 235.423 22.7725 234.704H24.4945C24.2612 235.413 23.8365 235.997 23.2205 236.454C22.6139 236.902 21.8579 237.126 20.9525 237.126C20.2152 237.126 19.5525 236.963 18.9645 236.636C18.3859 236.3 17.9285 235.833 17.5925 235.236C17.2659 234.629 17.1025 233.929 17.1025 233.136C17.1025 232.343 17.2612 231.647 17.5785 231.05C17.9052 230.443 18.3579 229.977 18.9365 229.65C19.5245 229.323 20.1965 229.16 20.9525 229.16C21.6805 229.16 22.3292 229.319 22.8985 229.636C23.4679 229.953 23.9112 230.401 24.2285 230.98C24.5459 231.549 24.7045 232.207 24.7045 232.954ZM23.0385 232.45C23.0292 231.862 22.8192 231.391 22.4085 231.036C21.9979 230.681 21.4892 230.504 20.8825 230.504C20.3319 230.504 19.8605 230.681 19.4685 231.036C19.0765 231.381 18.8432 231.853 18.7685 232.45H23.0385ZM27.5912 230.406C27.8245 230.014 28.1325 229.711 28.5152 229.496C28.9072 229.272 29.3692 229.16 29.9012 229.16V230.812H29.4952C28.8698 230.812 28.3938 230.971 28.0672 231.288C27.7498 231.605 27.5912 232.156 27.5912 232.94V237H25.9952V229.286H27.5912V230.406ZM40.7309 227.27V228.572H38.1409V237H36.5449V228.572H33.9409V227.27H40.7309ZM42.8793 228.264C42.5899 228.264 42.3473 228.166 42.1513 227.97C41.9553 227.774 41.8573 227.531 41.8573 227.242C41.8573 226.953 41.9553 226.71 42.1513 226.514C42.3473 226.318 42.5899 226.22 42.8793 226.22C43.1593 226.22 43.3973 226.318 43.5933 226.514C43.7893 226.71 43.8873 226.953 43.8873 227.242C43.8873 227.531 43.7893 227.774 43.5933 227.97C43.3973 228.166 43.1593 228.264 42.8793 228.264ZM43.6633 229.286V237H42.0673V229.286H43.6633ZM47.3407 230.588V234.858C47.3407 235.147 47.406 235.357 47.5367 235.488C47.6767 235.609 47.91 235.67 48.2367 235.67H49.2167V237H47.9567C47.238 237 46.6873 236.832 46.3047 236.496C45.922 236.16 45.7307 235.614 45.7307 234.858V230.588H44.8207V229.286H45.7307V227.368H47.3407V229.286H49.2167V230.588H47.3407ZM52.0037 226.64V237H50.4077V226.64H52.0037ZM60.8891 232.954C60.8891 233.243 60.8704 233.505 60.8331 233.738H54.9391C54.9857 234.354 55.2144 234.849 55.6251 235.222C56.0357 235.595 56.5397 235.782 57.1371 235.782C57.9957 235.782 58.6024 235.423 58.9571 234.704H60.6791C60.4457 235.413 60.0211 235.997 59.4051 236.454C58.7984 236.902 58.0424 237.126 57.1371 237.126C56.3997 237.126 55.7371 236.963 55.1491 236.636C54.5704 236.3 54.1131 235.833 53.7771 235.236C53.4504 234.629 53.2871 233.929 53.2871 233.136C53.2871 232.343 53.4457 231.647 53.7631 231.05C54.0897 230.443 54.5424 229.977 55.1211 229.65C55.7091 229.323 56.3811 229.16 57.1371 229.16C57.8651 229.16 58.5137 229.319 59.0831 229.636C59.6524 229.953 60.0957 230.401 60.4131 230.98C60.7304 231.549 60.8891 232.207 60.8891 232.954ZM59.2231 232.45C59.2137 231.862 59.0037 231.391 58.5931 231.036C58.1824 230.681 57.6737 230.504 57.0671 230.504C56.5164 230.504 56.0451 230.681 55.6531 231.036C55.2611 231.381 55.0277 231.853 54.9531 232.45H59.2231ZM76.2044 231.26V232.604H65.7044V231.26H76.2044ZM81.1267 228.25V226.794H84.0387V237H82.4287V228.25H81.1267ZM85.7553 234.872V233.668L90.4593 226.92H92.3913V233.486H93.6933V234.872H92.3913V237H90.8233V234.872H85.7553ZM90.8933 228.544L87.5893 233.486H90.8933V228.544Z" fill="#1F1F1F"/>
<path d="M5.811 269.359C6.29633 269.446 6.708 269.701 7.046 270.126C7.384 270.551 7.553 271.032 7.553 271.569C7.553 272.028 7.43167 272.444 7.189 272.817C6.955 273.181 6.61267 273.471 6.162 273.688C5.71133 273.896 5.187 274 4.589 274H0.975V264.965H4.42C5.03533 264.965 5.564 265.069 6.006 265.277C6.448 265.485 6.78167 265.767 7.007 266.122C7.23233 266.469 7.345 266.859 7.345 267.292C7.345 267.812 7.20633 268.245 6.929 268.592C6.65167 268.939 6.279 269.194 5.811 269.359ZM2.457 268.761H4.29C4.77533 268.761 5.15233 268.653 5.421 268.436C5.69833 268.211 5.837 267.89 5.837 267.474C5.837 267.067 5.69833 266.75 5.421 266.525C5.15233 266.291 4.77533 266.174 4.29 266.174H2.457V268.761ZM4.459 272.791C4.96167 272.791 5.356 272.67 5.642 272.427C5.928 272.184 6.071 271.846 6.071 271.413C6.071 270.971 5.91933 270.62 5.616 270.36C5.31267 270.1 4.90967 269.97 4.407 269.97H2.457V272.791H4.459ZM15.3905 266.837V274H13.9085V273.155C13.6745 273.45 13.3668 273.684 12.9855 273.857C12.6128 274.022 12.2141 274.104 11.7895 274.104C11.2261 274.104 10.7191 273.987 10.2685 273.753C9.82648 273.519 9.47548 273.172 9.21548 272.713C8.96414 272.254 8.83848 271.699 8.83848 271.049V266.837H10.3075V270.828C10.3075 271.469 10.4678 271.963 10.7885 272.31C11.1091 272.648 11.5468 272.817 12.1015 272.817C12.6561 272.817 13.0938 272.648 13.4145 272.31C13.7438 271.963 13.9085 271.469 13.9085 270.828V266.837H15.3905ZM18.5679 267.903C18.8192 267.556 19.1615 267.275 19.5949 267.058C20.0369 266.833 20.5265 266.72 21.0639 266.72C21.6965 266.72 22.2685 266.872 22.7799 267.175C23.2912 267.478 23.6942 267.912 23.9889 268.475C24.2835 269.03 24.4309 269.667 24.4309 270.386C24.4309 271.105 24.2835 271.751 23.9889 272.323C23.6942 272.886 23.2869 273.328 22.7669 273.649C22.2555 273.961 21.6879 274.117 21.0639 274.117C20.5092 274.117 20.0152 274.009 19.5819 273.792C19.1572 273.575 18.8192 273.298 18.5679 272.96V274H17.0859V264.38H18.5679V267.903ZM22.9229 270.386C22.9229 269.892 22.8189 269.467 22.6109 269.112C22.4115 268.748 22.1429 268.475 21.8049 268.293C21.4755 268.102 21.1202 268.007 20.7389 268.007C20.3662 268.007 20.0109 268.102 19.6729 268.293C19.3435 268.484 19.0749 268.761 18.8669 269.125C18.6675 269.489 18.5679 269.918 18.5679 270.412C18.5679 270.906 18.6675 271.339 18.8669 271.712C19.0749 272.076 19.3435 272.353 19.6729 272.544C20.0109 272.735 20.3662 272.83 20.7389 272.83C21.1202 272.83 21.4755 272.735 21.8049 272.544C22.1429 272.345 22.4115 272.059 22.6109 271.686C22.8189 271.313 22.9229 270.88 22.9229 270.386ZM27.1184 267.903C27.3697 267.556 27.7121 267.275 28.1454 267.058C28.5874 266.833 29.0771 266.72 29.6144 266.72C30.2471 266.72 30.8191 266.872 31.3304 267.175C31.8417 267.478 32.2447 267.912 32.5394 268.475C32.8341 269.03 32.9814 269.667 32.9814 270.386C32.9814 271.105 32.8341 271.751 32.5394 272.323C32.2447 272.886 31.8374 273.328 31.3174 273.649C30.8061 273.961 30.2384 274.117 29.6144 274.117C29.0597 274.117 28.5657 274.009 28.1324 273.792C27.7077 273.575 27.3697 273.298 27.1184 272.96V274H25.6364V264.38H27.1184V267.903ZM31.4734 270.386C31.4734 269.892 31.3694 269.467 31.1614 269.112C30.9621 268.748 30.6934 268.475 30.3554 268.293C30.0261 268.102 29.6707 268.007 29.2894 268.007C28.9167 268.007 28.5614 268.102 28.2234 268.293C27.8941 268.484 27.6254 268.761 27.4174 269.125C27.2181 269.489 27.1184 269.918 27.1184 270.412C27.1184 270.906 27.2181 271.339 27.4174 271.712C27.6254 272.076 27.8941 272.353 28.2234 272.544C28.5614 272.735 28.9167 272.83 29.2894 272.83C29.6707 272.83 30.0261 272.735 30.3554 272.544C30.6934 272.345 30.9621 272.059 31.1614 271.686C31.3694 271.313 31.4734 270.88 31.4734 270.386ZM35.669 264.38V274H34.187V264.38H35.669ZM43.9197 270.243C43.9197 270.512 43.9024 270.754 43.8677 270.971H38.3947C38.438 271.543 38.6504 272.002 39.0317 272.349C39.413 272.696 39.881 272.869 40.4357 272.869C41.233 272.869 41.7964 272.535 42.1257 271.868H43.7247C43.508 272.527 43.1137 273.068 42.5417 273.493C41.9784 273.909 41.2764 274.117 40.4357 274.117C39.751 274.117 39.1357 273.965 38.5897 273.662C38.0524 273.35 37.6277 272.917 37.3157 272.362C37.0124 271.799 36.8607 271.149 36.8607 270.412C36.8607 269.675 37.008 269.03 37.3027 268.475C37.606 267.912 38.0264 267.478 38.5637 267.175C39.1097 266.872 39.7337 266.72 40.4357 266.72C41.1117 266.72 41.714 266.867 42.2427 267.162C42.7714 267.457 43.183 267.873 43.4777 268.41C43.7724 268.939 43.9197 269.55 43.9197 270.243ZM42.3727 269.775C42.364 269.229 42.169 268.791 41.7877 268.462C41.4064 268.133 40.934 267.968 40.3707 267.968C39.8594 267.968 39.4217 268.133 39.0577 268.462C38.6937 268.783 38.477 269.22 38.4077 269.775H42.3727ZM54.0721 264.965V266.174H51.6671V274H50.1851V266.174H47.7671V264.965H54.0721ZM56.067 265.888C55.7983 265.888 55.573 265.797 55.391 265.615C55.209 265.433 55.118 265.208 55.118 264.939C55.118 264.67 55.209 264.445 55.391 264.263C55.573 264.081 55.7983 263.99 56.067 263.99C56.327 263.99 56.548 264.081 56.73 264.263C56.912 264.445 57.003 264.67 57.003 264.939C57.003 265.208 56.912 265.433 56.73 265.615C56.548 265.797 56.327 265.888 56.067 265.888ZM56.795 266.837V274H55.313V266.837H56.795ZM60.2097 268.046V272.011C60.2097 272.28 60.2704 272.475 60.3917 272.596C60.5217 272.709 60.7384 272.765 61.0417 272.765H61.9517V274H60.7817C60.1144 274 59.603 273.844 59.2477 273.532C58.8924 273.22 58.7147 272.713 58.7147 272.011V268.046H57.8697V266.837H58.7147V265.056H60.2097V266.837H61.9517V268.046H60.2097ZM64.5396 264.38V274H63.0576V264.38H64.5396ZM72.7904 270.243C72.7904 270.512 72.773 270.754 72.7384 270.971H67.2654C67.3087 271.543 67.521 272.002 67.9024 272.349C68.2837 272.696 68.7517 272.869 69.3064 272.869C70.1037 272.869 70.667 272.535 70.9964 271.868H72.5954C72.3787 272.527 71.9844 273.068 71.4124 273.493C70.849 273.909 70.147 274.117 69.3064 274.117C68.6217 274.117 68.0064 273.965 67.4604 273.662C66.923 273.35 66.4984 272.917 66.1864 272.362C65.883 271.799 65.7314 271.149 65.7314 270.412C65.7314 269.675 65.8787 269.03 66.1734 268.475C66.4767 267.912 66.897 267.478 67.4344 267.175C67.9804 266.872 68.6044 266.72 69.3064 266.72C69.9824 266.72 70.5847 266.867 71.1134 267.162C71.642 267.457 72.0537 267.873 72.3484 268.41C72.643 268.939 72.7904 269.55 72.7904 270.243ZM71.2434 269.775C71.2347 269.229 71.0397 268.791 70.6584 268.462C70.277 268.133 69.8047 267.968 69.2414 267.968C68.73 267.968 68.2924 268.133 67.9284 268.462C67.5644 268.783 67.3477 269.22 67.2784 269.775H71.2434ZM87.0117 268.67V269.918H77.2617V268.67H87.0117ZM91.5825 265.875V264.523H94.2865V274H92.7915V265.875H91.5825ZM96.0364 266.863C96.0884 266.057 96.396 265.429 96.9594 264.978C97.5314 264.527 98.2594 264.302 99.1434 264.302C99.75 264.302 100.274 264.41 100.716 264.627C101.158 264.844 101.492 265.138 101.717 265.511C101.943 265.884 102.055 266.304 102.055 266.772C102.055 267.309 101.912 267.769 101.626 268.15C101.34 268.531 100.998 268.787 100.599 268.917V268.969C101.111 269.125 101.509 269.411 101.795 269.827C102.081 270.234 102.224 270.759 102.224 271.4C102.224 271.911 102.107 272.366 101.873 272.765C101.639 273.164 101.293 273.48 100.833 273.714C100.374 273.939 99.8237 274.052 99.1824 274.052C98.2464 274.052 97.475 273.814 96.8684 273.337C96.2704 272.852 95.9497 272.158 95.9064 271.257H97.3364C97.371 271.716 97.5487 272.093 97.8694 272.388C98.19 272.674 98.6234 272.817 99.1694 272.817C99.698 272.817 100.105 272.674 100.391 272.388C100.677 272.093 100.82 271.716 100.82 271.257C100.82 270.65 100.625 270.221 100.235 269.97C99.854 269.71 99.2647 269.58 98.4674 269.58H98.1294V268.358H98.4804C99.1824 268.349 99.7154 268.232 100.079 268.007C100.452 267.782 100.638 267.426 100.638 266.941C100.638 266.525 100.504 266.196 100.235 265.953C99.9667 265.702 99.5854 265.576 99.0914 265.576C98.606 265.576 98.229 265.702 97.9604 265.953C97.6917 266.196 97.5314 266.499 97.4794 266.863H96.0364Z" fill="#1F1F1F"/>
<path d="M5.364 303.716C5.812 303.796 6.192 304.032 6.504 304.424C6.816 304.816 6.972 305.26 6.972 305.756C6.972 306.18 6.86 306.564 6.636 306.908C6.42 307.244 6.104 307.512 5.688 307.712C5.272 307.904 4.788 308 4.236 308H0.9V299.66H4.08C4.648 299.66 5.136 299.756 5.544 299.948C5.952 300.14 6.26 300.4 6.468 300.728C6.676 301.048 6.78 301.408 6.78 301.808C6.78 302.288 6.652 302.688 6.396 303.008C6.14 303.328 5.796 303.564 5.364 303.716ZM2.268 303.164H3.96C4.408 303.164 4.756 303.064 5.004 302.864C5.26 302.656 5.388 302.36 5.388 301.976C5.388 301.6 5.26 301.308 5.004 301.1C4.756 300.884 4.408 300.776 3.96 300.776H2.268V303.164ZM4.116 306.884C4.58 306.884 4.944 306.772 5.208 306.548C5.472 306.324 5.604 306.012 5.604 305.612C5.604 305.204 5.464 304.88 5.184 304.64C4.904 304.4 4.532 304.28 4.068 304.28H2.268V306.884H4.116ZM9.81459 302.504V306.164C9.81459 306.412 9.87059 306.592 9.98259 306.704C10.1026 306.808 10.3026 306.86 10.5826 306.86H11.4226V308H10.3426C9.72659 308 9.25459 307.856 8.92659 307.568C8.59859 307.28 8.43459 306.812 8.43459 306.164V302.504H7.65459V301.388H8.43459V299.744H9.81459V301.388H11.4226V302.504H9.81459ZM15.7794 301.28C16.2994 301.28 16.7634 301.388 17.1714 301.604C17.5874 301.82 17.9114 302.14 18.1434 302.564C18.3754 302.988 18.4914 303.5 18.4914 304.1V308H17.1354V304.304C17.1354 303.712 16.9874 303.26 16.6914 302.948C16.3954 302.628 15.9914 302.468 15.4794 302.468C14.9674 302.468 14.5594 302.628 14.2554 302.948C13.9594 303.26 13.8114 303.712 13.8114 304.304V308H12.4434V301.388H13.8114V302.144C14.0354 301.872 14.3194 301.66 14.6634 301.508C15.0154 301.356 15.3874 301.28 15.7794 301.28ZM32.0176 303.08V304.232H23.0176V303.08H32.0176ZM41.9847 299.66V300.776H39.7647V308H38.3967V300.776H36.1647V299.66H41.9847ZM49.1902 304.532C49.1902 304.78 49.1742 305.004 49.1422 305.204H44.0902C44.1302 305.732 44.3262 306.156 44.6782 306.476C45.0302 306.796 45.4622 306.956 45.9742 306.956C46.7102 306.956 47.2302 306.648 47.5342 306.032H49.0102C48.8102 306.64 48.4462 307.14 47.9182 307.532C47.3982 307.916 46.7502 308.108 45.9742 308.108C45.3422 308.108 44.7742 307.968 44.2702 307.688C43.7742 307.4 43.3822 307 43.0942 306.488C42.8142 305.968 42.6742 305.368 42.6742 304.688C42.6742 304.008 42.8102 303.412 43.0822 302.9C43.3622 302.38 43.7502 301.98 44.2462 301.7C44.7502 301.42 45.3262 301.28 45.9742 301.28C46.5982 301.28 47.1542 301.416 47.6422 301.688C48.1302 301.96 48.5102 302.344 48.7822 302.84C49.0542 303.328 49.1902 303.892 49.1902 304.532ZM47.7622 304.1C47.7542 303.596 47.5742 303.192 47.2222 302.888C46.8702 302.584 46.4342 302.432 45.9142 302.432C45.4422 302.432 45.0382 302.584 44.7022 302.888C44.3662 303.184 44.1662 303.588 44.1022 304.1H47.7622ZM53.1284 304.652L55.2644 308H53.7164L52.2884 305.756L50.9444 308H49.5164L51.6524 304.748L49.5164 301.388H51.0644L52.4924 303.632L53.8364 301.388H55.2644L53.1284 304.652ZM57.6407 302.504V306.164C57.6407 306.412 57.6967 306.592 57.8087 306.704C57.9287 306.808 58.1287 306.86 58.4087 306.86H59.2487V308H58.1687C57.5527 308 57.0807 307.856 56.7527 307.568C56.4247 307.28 56.2607 306.812 56.2607 306.164V302.504H55.4807V301.388H56.2607V299.744H57.6407V301.388H59.2487V302.504H57.6407ZM67.6107 303.716C68.0587 303.796 68.4387 304.032 68.7507 304.424C69.0627 304.816 69.2187 305.26 69.2187 305.756C69.2187 306.18 69.1067 306.564 68.8827 306.908C68.6667 307.244 68.3507 307.512 67.9347 307.712C67.5187 307.904 67.0347 308 66.4827 308H63.1467V299.66H66.3267C66.8947 299.66 67.3827 299.756 67.7907 299.948C68.1987 300.14 68.5067 300.4 68.7147 300.728C68.9227 301.048 69.0267 301.408 69.0267 301.808C69.0267 302.288 68.8987 302.688 68.6427 303.008C68.3867 303.328 68.0427 303.564 67.6107 303.716ZM64.5147 303.164H66.2067C66.6547 303.164 67.0027 303.064 67.2507 302.864C67.5067 302.656 67.6347 302.36 67.6347 301.976C67.6347 301.6 67.5067 301.308 67.2507 301.1C67.0027 300.884 66.6547 300.776 66.2067 300.776H64.5147V303.164ZM66.3627 306.884C66.8267 306.884 67.1907 306.772 67.4547 306.548C67.7187 306.324 67.8507 306.012 67.8507 305.612C67.8507 305.204 67.7107 304.88 67.4307 304.64C67.1507 304.4 66.7787 304.28 66.3147 304.28H64.5147V306.884H66.3627ZM72.0613 302.504V306.164C72.0613 306.412 72.1173 306.592 72.2293 306.704C72.3493 306.808 72.5493 306.86 72.8293 306.86H73.6693V308H72.5893C71.9733 308 71.5013 307.856 71.1733 307.568C70.8453 307.28 70.6813 306.812 70.6813 306.164V302.504H69.9013V301.388H70.6813V299.744H72.0613V301.388H73.6693V302.504H72.0613ZM78.0262 301.28C78.5462 301.28 79.0102 301.388 79.4182 301.604C79.8342 301.82 80.1582 302.14 80.3902 302.564C80.6222 302.988 80.7382 303.5 80.7382 304.1V308H79.3822V304.304C79.3822 303.712 79.2342 303.26 78.9382 302.948C78.6422 302.628 78.2382 302.468 77.7262 302.468C77.2142 302.468 76.8062 302.628 76.5022 302.948C76.2062 303.26 76.0582 303.712 76.0582 304.304V308H74.6902V301.388H76.0582V302.144C76.2822 301.872 76.5662 301.66 76.9102 301.508C77.2622 301.356 77.6342 301.28 78.0262 301.28ZM94.2643 303.08V304.232H85.2643V303.08H94.2643ZM98.4834 300.5V299.252H100.979V308H99.5994V300.5H98.4834ZM103.375 306.14C104.143 305.476 104.747 304.932 105.187 304.508C105.635 304.076 106.007 303.628 106.303 303.164C106.599 302.7 106.747 302.236 106.747 301.772C106.747 301.292 106.631 300.916 106.399 300.644C106.175 300.372 105.819 300.236 105.331 300.236C104.859 300.236 104.491 300.388 104.227 300.692C103.971 300.988 103.835 301.388 103.819 301.892H102.499C102.523 300.98 102.795 300.284 103.315 299.804C103.843 299.316 104.511 299.072 105.319 299.072C106.191 299.072 106.871 299.312 107.359 299.792C107.855 300.272 108.103 300.912 108.103 301.712C108.103 302.288 107.955 302.844 107.659 303.38C107.371 303.908 107.023 304.384 106.615 304.808C106.215 305.224 105.703 305.708 105.079 306.26L104.539 306.74H108.343V307.88H102.511V306.884L103.375 306.14Z" fill="#1F1F1F"/>
<path d="M6.288 333.66V334.776H4.068V342H2.7V334.776H0.468V333.66H6.288ZM6.97744 338.664C6.97744 338 7.11344 337.412 7.38544 336.9C7.66544 336.388 8.04144 335.992 8.51344 335.712C8.99344 335.424 9.52144 335.28 10.0974 335.28C10.6174 335.28 11.0694 335.384 11.4534 335.592C11.8454 335.792 12.1574 336.044 12.3894 336.348V335.388H13.7694V342H12.3894V341.016C12.1574 341.328 11.8414 341.588 11.4414 341.796C11.0414 342.004 10.5854 342.108 10.0734 342.108C9.50544 342.108 8.98544 341.964 8.51344 341.676C8.04144 341.38 7.66544 340.972 7.38544 340.452C7.11344 339.924 6.97744 339.328 6.97744 338.664ZM12.3894 338.688C12.3894 338.232 12.2934 337.836 12.1014 337.5C11.9174 337.164 11.6734 336.908 11.3694 336.732C11.0654 336.556 10.7374 336.468 10.3854 336.468C10.0334 336.468 9.70544 336.556 9.40144 336.732C9.09744 336.9 8.84944 337.152 8.65744 337.488C8.47344 337.816 8.38144 338.208 8.38144 338.664C8.38144 339.12 8.47344 339.52 8.65744 339.864C8.84944 340.208 9.09744 340.472 9.40144 340.656C9.71344 340.832 10.0414 340.92 10.3854 340.92C10.7374 340.92 11.0654 340.832 11.3694 340.656C11.6734 340.48 11.9174 340.224 12.1014 339.888C12.2934 339.544 12.3894 339.144 12.3894 338.688ZM16.6943 336.372C16.9263 336.052 17.2423 335.792 17.6423 335.592C18.0503 335.384 18.5023 335.28 18.9983 335.28C19.5823 335.28 20.1103 335.42 20.5823 335.7C21.0543 335.98 21.4263 336.38 21.6983 336.9C21.9703 337.412 22.1063 338 22.1063 338.664C22.1063 339.328 21.9703 339.924 21.6983 340.452C21.4263 340.972 21.0503 341.38 20.5703 341.676C20.0983 341.964 19.5743 342.108 18.9983 342.108C18.4863 342.108 18.0303 342.008 17.6303 341.808C17.2383 341.608 16.9263 341.352 16.6943 341.04V342H15.3263V333.12H16.6943V336.372ZM20.7143 338.664C20.7143 338.208 20.6183 337.816 20.4263 337.488C20.2423 337.152 19.9943 336.9 19.6823 336.732C19.3783 336.556 19.0503 336.468 18.6983 336.468C18.3543 336.468 18.0263 336.556 17.7143 336.732C17.4103 336.908 17.1623 337.164 16.9703 337.5C16.7863 337.836 16.6943 338.232 16.6943 338.688C16.6943 339.144 16.7863 339.544 16.9703 339.888C17.1623 340.224 17.4103 340.48 17.7143 340.656C18.0263 340.832 18.3543 340.92 18.6983 340.92C19.0503 340.92 19.3783 340.832 19.6823 340.656C19.9943 340.472 20.2423 340.208 20.4263 339.864C20.6183 339.52 20.7143 339.12 20.7143 338.664ZM27.4643 340.896H30.2843V342H26.0963V333.66H27.4643V340.896ZM30.7323 338.664C30.7323 338 30.8683 337.412 31.1403 336.9C31.4203 336.388 31.7963 335.992 32.2683 335.712C32.7483 335.424 33.2763 335.28 33.8523 335.28C34.3723 335.28 34.8243 335.384 35.2083 335.592C35.6003 335.792 35.9123 336.044 36.1443 336.348V335.388H37.5243V342H36.1443V341.016C35.9123 341.328 35.5963 341.588 35.1963 341.796C34.7963 342.004 34.3403 342.108 33.8283 342.108C33.2603 342.108 32.7403 341.964 32.2683 341.676C31.7963 341.38 31.4203 340.972 31.1403 340.452C30.8683 339.924 30.7323 339.328 30.7323 338.664ZM36.1443 338.688C36.1443 338.232 36.0483 337.836 35.8563 337.5C35.6723 337.164 35.4283 336.908 35.1243 336.732C34.8203 336.556 34.4923 336.468 34.1403 336.468C33.7883 336.468 33.4603 336.556 33.1563 336.732C32.8523 336.9 32.6043 337.152 32.4123 337.488C32.2283 337.816 32.1363 338.208 32.1363 338.664C32.1363 339.12 32.2283 339.52 32.4123 339.864C32.6043 340.208 32.8523 340.472 33.1563 340.656C33.4683 340.832 33.7963 340.92 34.1403 340.92C34.4923 340.92 34.8203 340.832 35.1243 340.656C35.4283 340.48 35.6723 340.224 35.8563 339.888C36.0483 339.544 36.1443 339.144 36.1443 338.688ZM40.4491 336.348C40.6491 336.012 40.9131 335.752 41.2411 335.568C41.5771 335.376 41.9731 335.28 42.4291 335.28V336.696H42.0811C41.5451 336.696 41.1371 336.832 40.8571 337.104C40.5851 337.376 40.4491 337.848 40.4491 338.52V342H39.0811V335.388H40.4491V336.348ZM46.1106 335.28C46.6226 335.28 47.0746 335.384 47.4666 335.592C47.8666 335.792 48.1786 336.044 48.4026 336.348V335.388H49.7826V342.108C49.7826 342.716 49.6546 343.256 49.3986 343.728C49.1426 344.208 48.7706 344.584 48.2826 344.856C47.8026 345.128 47.2266 345.264 46.5546 345.264C45.6586 345.264 44.9146 345.052 44.3226 344.628C43.7306 344.212 43.3946 343.644 43.3146 342.924H44.6706C44.7746 343.268 44.9946 343.544 45.3306 343.752C45.6746 343.968 46.0826 344.076 46.5546 344.076C47.1066 344.076 47.5506 343.908 47.8866 343.572C48.2306 343.236 48.4026 342.748 48.4026 342.108V341.004C48.1706 341.316 47.8546 341.58 47.4546 341.796C47.0626 342.004 46.6146 342.108 46.1106 342.108C45.5346 342.108 45.0066 341.964 44.5266 341.676C44.0546 341.38 43.6786 340.972 43.3986 340.452C43.1266 339.924 42.9906 339.328 42.9906 338.664C42.9906 338 43.1266 337.412 43.3986 336.9C43.6786 336.388 44.0546 335.992 44.5266 335.712C45.0066 335.424 45.5346 335.28 46.1106 335.28ZM48.4026 338.688C48.4026 338.232 48.3066 337.836 48.1146 337.5C47.9306 337.164 47.6866 336.908 47.3826 336.732C47.0786 336.556 46.7506 336.468 46.3986 336.468C46.0466 336.468 45.7186 336.556 45.4146 336.732C45.1106 336.9 44.8626 337.152 44.6706 337.488C44.4866 337.816 44.3946 338.208 44.3946 338.664C44.3946 339.12 44.4866 339.52 44.6706 339.864C44.8626 340.208 45.1106 340.472 45.4146 340.656C45.7266 340.832 46.0546 340.92 46.3986 340.92C46.7506 340.92 47.0786 340.832 47.3826 340.656C47.6866 340.48 47.9306 340.224 48.1146 339.888C48.3066 339.544 48.4026 339.144 48.4026 338.688ZM57.3994 338.532C57.3994 338.78 57.3834 339.004 57.3514 339.204H52.2994C52.3394 339.732 52.5354 340.156 52.8874 340.476C53.2394 340.796 53.6714 340.956 54.1834 340.956C54.9194 340.956 55.4394 340.648 55.7434 340.032H57.2194C57.0194 340.64 56.6554 341.14 56.1274 341.532C55.6074 341.916 54.9594 342.108 54.1834 342.108C53.5514 342.108 52.9834 341.968 52.4794 341.688C51.9834 341.4 51.5914 341 51.3034 340.488C51.0234 339.968 50.8834 339.368 50.8834 338.688C50.8834 338.008 51.0194 337.412 51.2914 336.9C51.5714 336.38 51.9594 335.98 52.4554 335.7C52.9594 335.42 53.5354 335.28 54.1834 335.28C54.8074 335.28 55.3634 335.416 55.8514 335.688C56.3394 335.96 56.7194 336.344 56.9914 336.84C57.2634 337.328 57.3994 337.892 57.3994 338.532ZM55.9714 338.1C55.9634 337.596 55.7834 337.192 55.4314 336.888C55.0794 336.584 54.6434 336.432 54.1234 336.432C53.6514 336.432 53.2474 336.584 52.9114 336.888C52.5754 337.184 52.3754 337.588 52.3114 338.1H55.9714ZM70.5268 337.08V338.232H61.5268V337.08H70.5268ZM74.7459 334.5V333.252H77.2419V342H75.8619V334.5H74.7459ZM79.6372 340.14C80.4052 339.476 81.0092 338.932 81.4492 338.508C81.8972 338.076 82.2692 337.628 82.5652 337.164C82.8612 336.7 83.0092 336.236 83.0092 335.772C83.0092 335.292 82.8932 334.916 82.6612 334.644C82.4372 334.372 82.0812 334.236 81.5932 334.236C81.1212 334.236 80.7532 334.388 80.4892 334.692C80.2332 334.988 80.0972 335.388 80.0812 335.892H78.7612C78.7852 334.98 79.0572 334.284 79.5772 333.804C80.1052 333.316 80.7732 333.072 81.5812 333.072C82.4532 333.072 83.1332 333.312 83.6212 333.792C84.1172 334.272 84.3652 334.912 84.3652 335.712C84.3652 336.288 84.2172 336.844 83.9212 337.38C83.6332 337.908 83.2852 338.384 82.8772 338.808C82.4772 339.224 81.9652 339.708 81.3412 340.26L80.8012 340.74H84.6052V341.88H78.7732V340.884L79.6372 340.14Z" fill="#1F1F1F"/>
<path d="M3.624 367.66C4.512 367.66 5.288 367.832 5.952 368.176C6.624 368.512 7.14 369 7.5 369.64C7.868 370.272 8.052 371.012 8.052 371.86C8.052 372.708 7.868 373.444 7.5 374.068C7.14 374.692 6.624 375.172 5.952 375.508C5.288 375.836 4.512 376 3.624 376H0.9V367.66H3.624ZM3.624 374.884C4.6 374.884 5.348 374.62 5.868 374.092C6.388 373.564 6.648 372.82 6.648 371.86C6.648 370.892 6.388 370.136 5.868 369.592C5.348 369.048 4.6 368.776 3.624 368.776H2.268V374.884H3.624ZM15.2278 372.532C15.2278 372.78 15.2118 373.004 15.1798 373.204H10.1278C10.1678 373.732 10.3638 374.156 10.7158 374.476C11.0678 374.796 11.4998 374.956 12.0118 374.956C12.7478 374.956 13.2678 374.648 13.5718 374.032H15.0478C14.8478 374.64 14.4838 375.14 13.9558 375.532C13.4358 375.916 12.7878 376.108 12.0118 376.108C11.3798 376.108 10.8118 375.968 10.3078 375.688C9.81181 375.4 9.41981 375 9.13181 374.488C8.85181 373.968 8.71181 373.368 8.71181 372.688C8.71181 372.008 8.84781 371.412 9.11981 370.9C9.39981 370.38 9.78781 369.98 10.2838 369.7C10.7878 369.42 11.3638 369.28 12.0118 369.28C12.6358 369.28 13.1918 369.416 13.6798 369.688C14.1678 369.96 14.5478 370.344 14.8198 370.84C15.0918 371.328 15.2278 371.892 15.2278 372.532ZM13.7998 372.1C13.7918 371.596 13.6118 371.192 13.2598 370.888C12.9078 370.584 12.4718 370.432 11.9518 370.432C11.4798 370.432 11.0758 370.584 10.7398 370.888C10.4038 371.184 10.2038 371.588 10.1398 372.1H13.7998ZM18.7341 376.108C18.2141 376.108 17.7461 376.016 17.3301 375.832C16.9221 375.64 16.5981 375.384 16.3581 375.064C16.1181 374.736 15.9901 374.372 15.9741 373.972H17.3901C17.4141 374.252 17.5461 374.488 17.7861 374.68C18.0341 374.864 18.3421 374.956 18.7101 374.956C19.0941 374.956 19.3901 374.884 19.5981 374.74C19.8141 374.588 19.9221 374.396 19.9221 374.164C19.9221 373.916 19.8021 373.732 19.5621 373.612C19.3301 373.492 18.9581 373.36 18.4461 373.216C17.9501 373.08 17.5461 372.948 17.2341 372.82C16.9221 372.692 16.6501 372.496 16.4181 372.232C16.1941 371.968 16.0821 371.62 16.0821 371.188C16.0821 370.836 16.1861 370.516 16.3941 370.228C16.6021 369.932 16.8981 369.7 17.2821 369.532C17.6741 369.364 18.1221 369.28 18.6261 369.28C19.3781 369.28 19.9821 369.472 20.4381 369.856C20.9021 370.232 21.1501 370.748 21.1821 371.404H19.8141C19.7901 371.108 19.6701 370.872 19.4541 370.696C19.2381 370.52 18.9461 370.432 18.5781 370.432C18.2181 370.432 17.9421 370.5 17.7501 370.636C17.5581 370.772 17.4621 370.952 17.4621 371.176C17.4621 371.352 17.5261 371.5 17.6541 371.62C17.7821 371.74 17.9381 371.836 18.1221 371.908C18.3061 371.972 18.5781 372.056 18.9381 372.16C19.4181 372.288 19.8101 372.42 20.1141 372.556C20.4261 372.684 20.6941 372.876 20.9181 373.132C21.1421 373.388 21.2581 373.728 21.2661 374.152C21.2661 374.528 21.1621 374.864 20.9541 375.16C20.7461 375.456 20.4501 375.688 20.0661 375.856C19.6901 376.024 19.2461 376.108 18.7341 376.108ZM22.0482 372.688C22.0482 372.008 22.1842 371.412 22.4562 370.9C22.7362 370.38 23.1202 369.98 23.6082 369.7C24.0962 369.42 24.6562 369.28 25.2882 369.28C26.0882 369.28 26.7482 369.472 27.2682 369.856C27.7962 370.232 28.1522 370.772 28.3362 371.476H26.8602C26.7402 371.148 26.5482 370.892 26.2842 370.708C26.0202 370.524 25.6882 370.432 25.2882 370.432C24.7282 370.432 24.2802 370.632 23.9442 371.032C23.6162 371.424 23.4522 371.976 23.4522 372.688C23.4522 373.4 23.6162 373.956 23.9442 374.356C24.2802 374.756 24.7282 374.956 25.2882 374.956C26.0802 374.956 26.6042 374.608 26.8602 373.912H28.3362C28.1442 374.584 27.7842 375.12 27.2562 375.52C26.7282 375.912 26.0722 376.108 25.2882 376.108C24.6562 376.108 24.0962 375.968 23.6082 375.688C23.1202 375.4 22.7362 375 22.4562 374.488C22.1842 373.968 22.0482 373.368 22.0482 372.688ZM30.8275 370.348C31.0275 370.012 31.2915 369.752 31.6195 369.568C31.9555 369.376 32.3515 369.28 32.8075 369.28V370.696H32.4595C31.9235 370.696 31.5155 370.832 31.2355 371.104C30.9635 371.376 30.8275 371.848 30.8275 372.52V376H29.4595V369.388H30.8275V370.348ZM34.521 368.512C34.273 368.512 34.065 368.428 33.897 368.26C33.729 368.092 33.645 367.884 33.645 367.636C33.645 367.388 33.729 367.18 33.897 367.012C34.065 366.844 34.273 366.76 34.521 366.76C34.761 366.76 34.965 366.844 35.133 367.012C35.301 367.18 35.385 367.388 35.385 367.636C35.385 367.884 35.301 368.092 35.133 368.26C34.965 368.428 34.761 368.512 34.521 368.512ZM35.193 369.388V376H33.825V369.388H35.193ZM38.1171 370.36C38.3491 370.056 38.6651 369.8 39.0651 369.592C39.4651 369.384 39.9171 369.28 40.4211 369.28C40.9971 369.28 41.5211 369.424 41.9931 369.712C42.4731 369.992 42.8491 370.388 43.1211 370.9C43.3931 371.412 43.5291 372 43.5291 372.664C43.5291 373.328 43.3931 373.924 43.1211 374.452C42.8491 374.972 42.4731 375.38 41.9931 375.676C41.5211 375.964 40.9971 376.108 40.4211 376.108C39.9171 376.108 39.4691 376.008 39.0771 375.808C38.6851 375.6 38.3651 375.344 38.1171 375.04V379.144H36.7491V369.388H38.1171V370.36ZM42.1371 372.664C42.1371 372.208 42.0411 371.816 41.8491 371.488C41.6651 371.152 41.4171 370.9 41.1051 370.732C40.8011 370.556 40.4731 370.468 40.1211 370.468C39.7771 370.468 39.4491 370.556 39.1371 370.732C38.8331 370.908 38.5851 371.164 38.3931 371.5C38.2091 371.836 38.1171 372.232 38.1171 372.688C38.1171 373.144 38.2091 373.544 38.3931 373.888C38.5851 374.224 38.8331 374.48 39.1371 374.656C39.4491 374.832 39.7771 374.92 40.1211 374.92C40.4731 374.92 40.8011 374.832 41.1051 374.656C41.4171 374.472 41.6651 374.208 41.8491 373.864C42.0411 373.52 42.1371 373.12 42.1371 372.664ZM46.2379 370.504V374.164C46.2379 374.412 46.2939 374.592 46.4059 374.704C46.5259 374.808 46.7259 374.86 47.0059 374.86H47.8459V376H46.7659C46.1499 376 45.6779 375.856 45.3499 375.568C45.0219 375.28 44.8579 374.812 44.8579 374.164V370.504H44.0779V369.388H44.8579V367.744H46.2379V369.388H47.8459V370.504H46.2379ZM51.7347 376.108C51.1107 376.108 50.5467 375.968 50.0427 375.688C49.5387 375.4 49.1427 375 48.8547 374.488C48.5667 373.968 48.4227 373.368 48.4227 372.688C48.4227 372.016 48.5707 371.42 48.8667 370.9C49.1627 370.38 49.5667 369.98 50.0787 369.7C50.5907 369.42 51.1627 369.28 51.7947 369.28C52.4267 369.28 52.9987 369.42 53.5107 369.7C54.0227 369.98 54.4267 370.38 54.7227 370.9C55.0187 371.42 55.1667 372.016 55.1667 372.688C55.1667 373.36 55.0147 373.956 54.7107 374.476C54.4067 374.996 53.9907 375.4 53.4627 375.688C52.9427 375.968 52.3667 376.108 51.7347 376.108ZM51.7347 374.92C52.0867 374.92 52.4147 374.836 52.7187 374.668C53.0307 374.5 53.2827 374.248 53.4747 373.912C53.6667 373.576 53.7627 373.168 53.7627 372.688C53.7627 372.208 53.6707 371.804 53.4867 371.476C53.3027 371.14 53.0587 370.888 52.7547 370.72C52.4507 370.552 52.1227 370.468 51.7707 370.468C51.4187 370.468 51.0907 370.552 50.7867 370.72C50.4907 370.888 50.2547 371.14 50.0787 371.476C49.9027 371.804 49.8147 372.208 49.8147 372.688C49.8147 373.4 49.9947 373.952 50.3547 374.344C50.7227 374.728 51.1827 374.92 51.7347 374.92ZM57.6471 370.348C57.8471 370.012 58.1111 369.752 58.4391 369.568C58.7751 369.376 59.1711 369.28 59.6271 369.28V370.696H59.2791C58.7431 370.696 58.3351 370.832 58.0551 371.104C57.7831 371.376 57.6471 371.848 57.6471 372.52V376H56.2791V369.388H57.6471V370.348ZM64.8897 374.896H67.7097V376H63.5217V367.66H64.8897V374.896ZM68.1578 372.664C68.1578 372 68.2938 371.412 68.5658 370.9C68.8458 370.388 69.2218 369.992 69.6938 369.712C70.1738 369.424 70.7018 369.28 71.2778 369.28C71.7978 369.28 72.2498 369.384 72.6338 369.592C73.0258 369.792 73.3378 370.044 73.5698 370.348V369.388H74.9498V376H73.5698V375.016C73.3378 375.328 73.0218 375.588 72.6218 375.796C72.2218 376.004 71.7658 376.108 71.2538 376.108C70.6858 376.108 70.1658 375.964 69.6938 375.676C69.2218 375.38 68.8458 374.972 68.5658 374.452C68.2938 373.924 68.1578 373.328 68.1578 372.664ZM73.5698 372.688C73.5698 372.232 73.4738 371.836 73.2818 371.5C73.0978 371.164 72.8538 370.908 72.5498 370.732C72.2458 370.556 71.9178 370.468 71.5658 370.468C71.2138 370.468 70.8858 370.556 70.5818 370.732C70.2778 370.9 70.0298 371.152 69.8378 371.488C69.6538 371.816 69.5618 372.208 69.5618 372.664C69.5618 373.12 69.6538 373.52 69.8378 373.864C70.0298 374.208 70.2778 374.472 70.5818 374.656C70.8938 374.832 71.2218 374.92 71.5658 374.92C71.9178 374.92 72.2458 374.832 72.5498 374.656C72.8538 374.48 73.0978 374.224 73.2818 373.888C73.4738 373.544 73.5698 373.144 73.5698 372.688ZM77.8746 370.348C78.0746 370.012 78.3386 369.752 78.6666 369.568C79.0026 369.376 79.3986 369.28 79.8546 369.28V370.696H79.5066C78.9706 370.696 78.5626 370.832 78.2826 371.104C78.0106 371.376 77.8746 371.848 77.8746 372.52V376H76.5066V369.388H77.8746V370.348ZM83.536 369.28C84.048 369.28 84.5 369.384 84.892 369.592C85.292 369.792 85.604 370.044 85.828 370.348V369.388H87.208V376.108C87.208 376.716 87.08 377.256 86.824 377.728C86.568 378.208 86.196 378.584 85.708 378.856C85.228 379.128 84.652 379.264 83.98 379.264C83.084 379.264 82.34 379.052 81.748 378.628C81.156 378.212 80.82 377.644 80.74 376.924H82.096C82.2 377.268 82.42 377.544 82.756 377.752C83.1 377.968 83.508 378.076 83.98 378.076C84.532 378.076 84.976 377.908 85.312 377.572C85.656 377.236 85.828 376.748 85.828 376.108V375.004C85.596 375.316 85.28 375.58 84.88 375.796C84.488 376.004 84.04 376.108 83.536 376.108C82.96 376.108 82.432 375.964 81.952 375.676C81.48 375.38 81.104 374.972 80.824 374.452C80.552 373.924 80.416 373.328 80.416 372.664C80.416 372 80.552 371.412 80.824 370.9C81.104 370.388 81.48 369.992 81.952 369.712C82.432 369.424 82.96 369.28 83.536 369.28ZM85.828 372.688C85.828 372.232 85.732 371.836 85.54 371.5C85.356 371.164 85.112 370.908 84.808 370.732C84.504 370.556 84.176 370.468 83.824 370.468C83.472 370.468 83.144 370.556 82.84 370.732C82.536 370.9 82.288 371.152 82.096 371.488C81.912 371.816 81.82 372.208 81.82 372.664C81.82 373.12 81.912 373.52 82.096 373.864C82.288 374.208 82.536 374.472 82.84 374.656C83.152 374.832 83.48 374.92 83.824 374.92C84.176 374.92 84.504 374.832 84.808 374.656C85.112 374.48 85.356 374.224 85.54 373.888C85.732 373.544 85.828 373.144 85.828 372.688ZM94.8248 372.532C94.8248 372.78 94.8088 373.004 94.7768 373.204H89.7248C89.7648 373.732 89.9608 374.156 90.3128 374.476C90.6648 374.796 91.0968 374.956 91.6088 374.956C92.3448 374.956 92.8648 374.648 93.1688 374.032H94.6448C94.4448 374.64 94.0808 375.14 93.5528 375.532C93.0328 375.916 92.3848 376.108 91.6088 376.108C90.9768 376.108 90.4088 375.968 89.9048 375.688C89.4088 375.4 89.0168 375 88.7288 374.488C88.4488 373.968 88.3088 373.368 88.3088 372.688C88.3088 372.008 88.4448 371.412 88.7168 370.9C88.9968 370.38 89.3848 369.98 89.8808 369.7C90.3848 369.42 90.9608 369.28 91.6088 369.28C92.2328 369.28 92.7888 369.416 93.2768 369.688C93.7648 369.96 94.1448 370.344 94.4168 370.84C94.6888 371.328 94.8248 371.892 94.8248 372.532ZM93.3968 372.1C93.3888 371.596 93.2088 371.192 92.8568 370.888C92.5048 370.584 92.0688 370.432 91.5488 370.432C91.0768 370.432 90.6728 370.584 90.3368 370.888C90.0008 371.184 89.8008 371.588 89.7368 372.1H93.3968ZM107.952 371.08V372.232H98.9523V371.08H107.952ZM112.171 368.5V367.252H114.667V376H113.287V368.5H112.171ZM117.063 374.14C117.831 373.476 118.435 372.932 118.875 372.508C119.323 372.076 119.695 371.628 119.991 371.164C120.287 370.7 120.435 370.236 120.435 369.772C120.435 369.292 120.319 368.916 120.087 368.644C119.863 368.372 119.507 368.236 119.019 368.236C118.547 368.236 118.179 368.388 117.915 368.692C117.659 368.988 117.523 369.388 117.507 369.892H116.187C116.211 368.98 116.483 368.284 117.003 367.804C117.531 367.316 118.199 367.072 119.007 367.072C119.879 367.072 120.559 367.312 121.047 367.792C121.543 368.272 121.791 368.912 121.791 369.712C121.791 370.288 121.643 370.844 121.347 371.38C121.059 371.908 120.711 372.384 120.303 372.808C119.903 373.224 119.391 373.708 118.767 374.26L118.227 374.74H122.031V375.88H116.199V374.884L117.063 374.14Z" fill="#1F1F1F"/>
<path d="M3.02 401.05C3.76 401.05 4.40667 401.193 4.96 401.48C5.52 401.76 5.95 402.167 6.25 402.7C6.55667 403.227 6.71 403.843 6.71 404.55C6.71 405.257 6.55667 405.87 6.25 406.39C5.95 406.91 5.52 407.31 4.96 407.59C4.40667 407.863 3.76 408 3.02 408H0.75V401.05H3.02ZM3.02 407.07C3.83333 407.07 4.45667 406.85 4.89 406.41C5.32333 405.97 5.54 405.35 5.54 404.55C5.54 403.743 5.32333 403.113 4.89 402.66C4.45667 402.207 3.83333 401.98 3.02 401.98H1.89V407.07H3.02ZM12.6898 405.11C12.6898 405.317 12.6765 405.503 12.6498 405.67H8.43984C8.47318 406.11 8.63651 406.463 8.92984 406.73C9.22318 406.997 9.58318 407.13 10.0098 407.13C10.6232 407.13 11.0565 406.873 11.3098 406.36H12.5398C12.3732 406.867 12.0698 407.283 11.6298 407.61C11.1965 407.93 10.6565 408.09 10.0098 408.09C9.48318 408.09 9.00984 407.973 8.58984 407.74C8.17651 407.5 7.84984 407.167 7.60984 406.74C7.37651 406.307 7.25984 405.807 7.25984 405.24C7.25984 404.673 7.37318 404.177 7.59984 403.75C7.83318 403.317 8.15651 402.983 8.56984 402.75C8.98984 402.517 9.46984 402.4 10.0098 402.4C10.5298 402.4 10.9932 402.513 11.3998 402.74C11.8065 402.967 12.1232 403.287 12.3498 403.7C12.5765 404.107 12.6898 404.577 12.6898 405.11ZM11.4998 404.75C11.4932 404.33 11.3432 403.993 11.0498 403.74C10.7565 403.487 10.3932 403.36 9.95984 403.36C9.56651 403.36 9.22984 403.487 8.94984 403.74C8.66984 403.987 8.50318 404.323 8.44984 404.75H11.4998ZM15.6117 408.09C15.1784 408.09 14.7884 408.013 14.4417 407.86C14.1017 407.7 13.8317 407.487 13.6317 407.22C13.4317 406.947 13.3251 406.643 13.3117 406.31H14.4917C14.5117 406.543 14.6217 406.74 14.8217 406.9C15.0284 407.053 15.2851 407.13 15.5917 407.13C15.9117 407.13 16.1584 407.07 16.3317 406.95C16.5117 406.823 16.6017 406.663 16.6017 406.47C16.6017 406.263 16.5017 406.11 16.3017 406.01C16.1084 405.91 15.7984 405.8 15.3717 405.68C14.9584 405.567 14.6217 405.457 14.3617 405.35C14.1017 405.243 13.8751 405.08 13.6817 404.86C13.4951 404.64 13.4017 404.35 13.4017 403.99C13.4017 403.697 13.4884 403.43 13.6617 403.19C13.8351 402.943 14.0817 402.75 14.4017 402.61C14.7284 402.47 15.1017 402.4 15.5217 402.4C16.1484 402.4 16.6517 402.56 17.0317 402.88C17.4184 403.193 17.6251 403.623 17.6517 404.17H16.5117C16.4917 403.923 16.3917 403.727 16.2117 403.58C16.0317 403.433 15.7884 403.36 15.4817 403.36C15.1817 403.36 14.9517 403.417 14.7917 403.53C14.6317 403.643 14.5517 403.793 14.5517 403.98C14.5517 404.127 14.6051 404.25 14.7117 404.35C14.8184 404.45 14.9484 404.53 15.1017 404.59C15.2551 404.643 15.4817 404.713 15.7817 404.8C16.1817 404.907 16.5084 405.017 16.7617 405.13C17.0217 405.237 17.2451 405.397 17.4317 405.61C17.6184 405.823 17.7151 406.107 17.7217 406.46C17.7217 406.773 17.6351 407.053 17.4617 407.3C17.2884 407.547 17.0417 407.74 16.7217 407.88C16.4084 408.02 16.0384 408.09 15.6117 408.09ZM18.3735 405.24C18.3735 404.673 18.4868 404.177 18.7135 403.75C18.9468 403.317 19.2668 402.983 19.6735 402.75C20.0802 402.517 20.5468 402.4 21.0735 402.4C21.7402 402.4 22.2902 402.56 22.7235 402.88C23.1635 403.193 23.4602 403.643 23.6135 404.23H22.3835C22.2835 403.957 22.1235 403.743 21.9035 403.59C21.6835 403.437 21.4068 403.36 21.0735 403.36C20.6068 403.36 20.2335 403.527 19.9535 403.86C19.6802 404.187 19.5435 404.647 19.5435 405.24C19.5435 405.833 19.6802 406.297 19.9535 406.63C20.2335 406.963 20.6068 407.13 21.0735 407.13C21.7335 407.13 22.1702 406.84 22.3835 406.26H23.6135C23.4535 406.82 23.1535 407.267 22.7135 407.6C22.2735 407.927 21.7268 408.09 21.0735 408.09C20.5468 408.09 20.0802 407.973 19.6735 407.74C19.2668 407.5 18.9468 407.167 18.7135 406.74C18.4868 406.307 18.3735 405.807 18.3735 405.24ZM25.6896 403.29C25.8563 403.01 26.0763 402.793 26.3496 402.64C26.6296 402.48 26.9596 402.4 27.3396 402.4V403.58H27.0496C26.6029 403.58 26.2629 403.693 26.0296 403.92C25.8029 404.147 25.6896 404.54 25.6896 405.1V408H24.5496V402.49H25.6896V403.29ZM28.7675 401.76C28.5608 401.76 28.3875 401.69 28.2475 401.55C28.1075 401.41 28.0375 401.237 28.0375 401.03C28.0375 400.823 28.1075 400.65 28.2475 400.51C28.3875 400.37 28.5608 400.3 28.7675 400.3C28.9675 400.3 29.1375 400.37 29.2775 400.51C29.4175 400.65 29.4875 400.823 29.4875 401.03C29.4875 401.237 29.4175 401.41 29.2775 401.55C29.1375 401.69 28.9675 401.76 28.7675 401.76ZM29.3275 402.49V408H28.1875V402.49H29.3275ZM31.7642 403.3C31.9576 403.047 32.2209 402.833 32.5542 402.66C32.8876 402.487 33.2642 402.4 33.6842 402.4C34.1642 402.4 34.6009 402.52 34.9942 402.76C35.3942 402.993 35.7076 403.323 35.9342 403.75C36.1609 404.177 36.2742 404.667 36.2742 405.22C36.2742 405.773 36.1609 406.27 35.9342 406.71C35.7076 407.143 35.3942 407.483 34.9942 407.73C34.6009 407.97 34.1642 408.09 33.6842 408.09C33.2642 408.09 32.8909 408.007 32.5642 407.84C32.2376 407.667 31.9709 407.453 31.7642 407.2V410.62H30.6242V402.49H31.7642V403.3ZM35.1142 405.22C35.1142 404.84 35.0342 404.513 34.8742 404.24C34.7209 403.96 34.5142 403.75 34.2542 403.61C34.0009 403.463 33.7276 403.39 33.4342 403.39C33.1476 403.39 32.8742 403.463 32.6142 403.61C32.3609 403.757 32.1542 403.97 31.9942 404.25C31.8409 404.53 31.7642 404.86 31.7642 405.24C31.7642 405.62 31.8409 405.953 31.9942 406.24C32.1542 406.52 32.3609 406.733 32.6142 406.88C32.8742 407.027 33.1476 407.1 33.4342 407.1C33.7276 407.1 34.0009 407.027 34.2542 406.88C34.5142 406.727 34.7209 406.507 34.8742 406.22C35.0342 405.933 35.1142 405.6 35.1142 405.22ZM38.5316 403.42V406.47C38.5316 406.677 38.5782 406.827 38.6716 406.92C38.7716 407.007 38.9382 407.05 39.1716 407.05H39.8716V408H38.9716C38.4582 408 38.0649 407.88 37.7916 407.64C37.5182 407.4 37.3816 407.01 37.3816 406.47V403.42H36.7316V402.49H37.3816V401.12H38.5316V402.49H39.8716V403.42H38.5316ZM43.1123 408.09C42.5923 408.09 42.1223 407.973 41.7023 407.74C41.2823 407.5 40.9523 407.167 40.7123 406.74C40.4723 406.307 40.3523 405.807 40.3523 405.24C40.3523 404.68 40.4756 404.183 40.7223 403.75C40.9689 403.317 41.3056 402.983 41.7323 402.75C42.1589 402.517 42.6356 402.4 43.1623 402.4C43.6889 402.4 44.1656 402.517 44.5923 402.75C45.0189 402.983 45.3556 403.317 45.6023 403.75C45.8489 404.183 45.9723 404.68 45.9723 405.24C45.9723 405.8 45.8456 406.297 45.5923 406.73C45.3389 407.163 44.9923 407.5 44.5523 407.74C44.1189 407.973 43.6389 408.09 43.1123 408.09ZM43.1123 407.1C43.4056 407.1 43.6789 407.03 43.9323 406.89C44.1923 406.75 44.4023 406.54 44.5623 406.26C44.7223 405.98 44.8023 405.64 44.8023 405.24C44.8023 404.84 44.7256 404.503 44.5723 404.23C44.4189 403.95 44.2156 403.74 43.9623 403.6C43.7089 403.46 43.4356 403.39 43.1423 403.39C42.8489 403.39 42.5756 403.46 42.3223 403.6C42.0756 403.74 41.8789 403.95 41.7323 404.23C41.5856 404.503 41.5123 404.84 41.5123 405.24C41.5123 405.833 41.6623 406.293 41.9623 406.62C42.2689 406.94 42.6523 407.1 43.1123 407.1ZM48.0392 403.29C48.2059 403.01 48.4259 402.793 48.6992 402.64C48.9792 402.48 49.3092 402.4 49.6892 402.4V403.58H49.3992C48.9526 403.58 48.6126 403.693 48.3792 403.92C48.1526 404.147 48.0392 404.54 48.0392 405.1V408H46.8992V402.49H48.0392V403.29ZM55.2248 408.07C54.7581 408.07 54.3381 407.99 53.9648 407.83C53.5914 407.663 53.2981 407.43 53.0848 407.13C52.8714 406.83 52.7648 406.48 52.7648 406.08H53.9848C54.0114 406.38 54.1281 406.627 54.3348 406.82C54.5481 407.013 54.8448 407.11 55.2248 407.11C55.6181 407.11 55.9248 407.017 56.1448 406.83C56.3648 406.637 56.4748 406.39 56.4748 406.09C56.4748 405.857 56.4048 405.667 56.2648 405.52C56.1314 405.373 55.9614 405.26 55.7548 405.18C55.5548 405.1 55.2748 405.013 54.9148 404.92C54.4614 404.8 54.0914 404.68 53.8048 404.56C53.5248 404.433 53.2848 404.24 53.0848 403.98C52.8848 403.72 52.7848 403.373 52.7848 402.94C52.7848 402.54 52.8848 402.19 53.0848 401.89C53.2848 401.59 53.5648 401.36 53.9248 401.2C54.2848 401.04 54.7014 400.96 55.1748 400.96C55.8481 400.96 56.3981 401.13 56.8248 401.47C57.2581 401.803 57.4981 402.263 57.5448 402.85H56.2848C56.2648 402.597 56.1448 402.38 55.9248 402.2C55.7048 402.02 55.4148 401.93 55.0548 401.93C54.7281 401.93 54.4614 402.013 54.2548 402.18C54.0481 402.347 53.9448 402.587 53.9448 402.9C53.9448 403.113 54.0081 403.29 54.1348 403.43C54.2681 403.563 54.4348 403.67 54.6348 403.75C54.8348 403.83 55.1081 403.917 55.4548 404.01C55.9148 404.137 56.2881 404.263 56.5748 404.39C56.8681 404.517 57.1148 404.713 57.3148 404.98C57.5214 405.24 57.6248 405.59 57.6248 406.03C57.6248 406.383 57.5281 406.717 57.3348 407.03C57.1481 407.343 56.8714 407.597 56.5048 407.79C56.1448 407.977 55.7181 408.07 55.2248 408.07ZM65.4399 402.4C65.8733 402.4 66.2599 402.49 66.5999 402.67C66.9466 402.85 67.2166 403.117 67.4099 403.47C67.6099 403.823 67.7099 404.25 67.7099 404.75V408H66.5799V404.92C66.5799 404.427 66.4566 404.05 66.2099 403.79C65.9633 403.523 65.6266 403.39 65.1999 403.39C64.7733 403.39 64.4333 403.523 64.1799 403.79C63.9333 404.05 63.8099 404.427 63.8099 404.92V408H62.6799V404.92C62.6799 404.427 62.5566 404.05 62.3099 403.79C62.0633 403.523 61.7266 403.39 61.2999 403.39C60.8733 403.39 60.5333 403.523 60.2799 403.79C60.0333 404.05 59.9099 404.427 59.9099 404.92V408H58.7699V402.49H59.9099V403.12C60.0966 402.893 60.3333 402.717 60.6199 402.59C60.9066 402.463 61.2133 402.4 61.5399 402.4C61.9799 402.4 62.3733 402.493 62.7199 402.68C63.0666 402.867 63.3333 403.137 63.5199 403.49C63.6866 403.157 63.9466 402.893 64.2999 402.7C64.6533 402.5 65.0333 402.4 65.4399 402.4ZM68.5805 405.22C68.5805 404.667 68.6939 404.177 68.9205 403.75C69.1539 403.323 69.4672 402.993 69.8605 402.76C70.2605 402.52 70.7005 402.4 71.1805 402.4C71.6139 402.4 71.9905 402.487 72.3105 402.66C72.6372 402.827 72.8972 403.037 73.0905 403.29V402.49H74.2405V408H73.0905V407.18C72.8972 407.44 72.6339 407.657 72.3005 407.83C71.9672 408.003 71.5872 408.09 71.1605 408.09C70.6872 408.09 70.2539 407.97 69.8605 407.73C69.4672 407.483 69.1539 407.143 68.9205 406.71C68.6939 406.27 68.5805 405.773 68.5805 405.22ZM73.0905 405.24C73.0905 404.86 73.0105 404.53 72.8505 404.25C72.6972 403.97 72.4939 403.757 72.2405 403.61C71.9872 403.463 71.7139 403.39 71.4205 403.39C71.1272 403.39 70.8539 403.463 70.6005 403.61C70.3472 403.75 70.1405 403.96 69.9805 404.24C69.8272 404.513 69.7505 404.84 69.7505 405.22C69.7505 405.6 69.8272 405.933 69.9805 406.22C70.1405 406.507 70.3472 406.727 70.6005 406.88C70.8605 407.027 71.1339 407.1 71.4205 407.1C71.7139 407.1 71.9872 407.027 72.2405 406.88C72.4939 406.733 72.6972 406.52 72.8505 406.24C73.0105 405.953 73.0905 405.62 73.0905 405.24ZM76.6779 400.6V408H75.5379V400.6H76.6779ZM79.1146 400.6V408H77.9746V400.6H79.1146ZM90.429 403.9V404.86H82.929V403.9H90.429ZM93.9449 401.75V400.71H96.0249V408H94.8749V401.75H93.9449ZM97.391 404.26C97.391 403.107 97.5843 402.207 97.971 401.56C98.3643 400.907 99.0377 400.58 99.991 400.58C100.944 400.58 101.614 400.907 102.001 401.56C102.394 402.207 102.591 403.107 102.591 404.26C102.591 405.427 102.394 406.34 102.001 407C101.614 407.653 100.944 407.98 99.991 407.98C99.0377 407.98 98.3643 407.653 97.971 407C97.5843 406.34 97.391 405.427 97.391 404.26ZM101.471 404.26C101.471 403.72 101.434 403.263 101.361 402.89C101.294 402.517 101.154 402.213 100.941 401.98C100.728 401.74 100.411 401.62 99.991 401.62C99.571 401.62 99.2543 401.74 99.041 401.98C98.8277 402.213 98.6843 402.517 98.611 402.89C98.5443 403.263 98.511 403.72 98.511 404.26C98.511 404.82 98.5443 405.29 98.611 405.67C98.6777 406.05 98.8177 406.357 99.031 406.59C99.251 406.823 99.571 406.94 99.991 406.94C100.411 406.94 100.728 406.823 100.941 406.59C101.161 406.357 101.304 406.05 101.371 405.67C101.438 405.29 101.471 404.82 101.471 404.26Z" fill="#1F1F1F"/>
<path d="M5.61 434.12C5.61 434.473 5.52667 434.807 5.36 435.12C5.19333 435.433 4.92667 435.69 4.56 435.89C4.19333 436.083 3.72333 436.18 3.15 436.18H1.89V439H0.75V432.05H3.15C3.68333 432.05 4.13333 432.143 4.5 432.33C4.87333 432.51 5.15 432.757 5.33 433.07C5.51667 433.383 5.61 433.733 5.61 434.12ZM3.15 435.25C3.58333 435.25 3.90667 435.153 4.12 434.96C4.33333 434.76 4.44 434.48 4.44 434.12C4.44 433.36 4.01 432.98 3.15 432.98H1.89V435.25H3.15ZM7.63727 434.29C7.80393 434.01 8.02393 433.793 8.29727 433.64C8.57727 433.48 8.90727 433.4 9.28727 433.4V434.58H8.99727C8.5506 434.58 8.2106 434.693 7.97727 434.92C7.7506 435.147 7.63727 435.54 7.63727 436.1V439H6.49727V433.49H7.63727V434.29ZM12.5252 439.09C12.0052 439.09 11.5352 438.973 11.1152 438.74C10.6952 438.5 10.3652 438.167 10.1252 437.74C9.88516 437.307 9.76516 436.807 9.76516 436.24C9.76516 435.68 9.88849 435.183 10.1352 434.75C10.3818 434.317 10.7185 433.983 11.1452 433.75C11.5718 433.517 12.0485 433.4 12.5752 433.4C13.1018 433.4 13.5785 433.517 14.0052 433.75C14.4318 433.983 14.7685 434.317 15.0152 434.75C15.2618 435.183 15.3852 435.68 15.3852 436.24C15.3852 436.8 15.2585 437.297 15.0052 437.73C14.7518 438.163 14.4052 438.5 13.9652 438.74C13.5318 438.973 13.0518 439.09 12.5252 439.09ZM12.5252 438.1C12.8185 438.1 13.0918 438.03 13.3452 437.89C13.6052 437.75 13.8152 437.54 13.9752 437.26C14.1352 436.98 14.2152 436.64 14.2152 436.24C14.2152 435.84 14.1385 435.503 13.9852 435.23C13.8318 434.95 13.6285 434.74 13.3752 434.6C13.1218 434.46 12.8485 434.39 12.5552 434.39C12.2618 434.39 11.9885 434.46 11.7352 434.6C11.4885 434.74 11.2918 434.95 11.1452 435.23C10.9985 435.503 10.9252 435.84 10.9252 436.24C10.9252 436.833 11.0752 437.293 11.3752 437.62C11.6818 437.94 12.0652 438.1 12.5252 438.1ZM22.9821 433.4C23.4154 433.4 23.8021 433.49 24.1421 433.67C24.4888 433.85 24.7588 434.117 24.9521 434.47C25.1521 434.823 25.2521 435.25 25.2521 435.75V439H24.1221V435.92C24.1221 435.427 23.9988 435.05 23.7521 434.79C23.5054 434.523 23.1688 434.39 22.7421 434.39C22.3154 434.39 21.9754 434.523 21.7221 434.79C21.4754 435.05 21.3521 435.427 21.3521 435.92V439H20.2221V435.92C20.2221 435.427 20.0988 435.05 19.8521 434.79C19.6054 434.523 19.2688 434.39 18.8421 434.39C18.4154 434.39 18.0754 434.523 17.8221 434.79C17.5754 435.05 17.4521 435.427 17.4521 435.92V439H16.3121V433.49H17.4521V434.12C17.6388 433.893 17.8754 433.717 18.1621 433.59C18.4488 433.463 18.7554 433.4 19.0821 433.4C19.5221 433.4 19.9154 433.493 20.2621 433.68C20.6088 433.867 20.8754 434.137 21.0621 434.49C21.2288 434.157 21.4888 433.893 21.8421 433.7C22.1954 433.5 22.5754 433.4 22.9821 433.4ZM27.8327 434.42V437.47C27.8327 437.677 27.8794 437.827 27.9727 437.92C28.0727 438.007 28.2394 438.05 28.4727 438.05H29.1727V439H28.2727C27.7594 439 27.3661 438.88 27.0927 438.64C26.8194 438.4 26.6827 438.01 26.6827 437.47V434.42H26.0327V433.49H26.6827V432.12H27.8327V433.49H29.1727V434.42H27.8327ZM36.9111 432.05V432.98H35.0611V439H33.9211V432.98H32.0611V432.05H36.9111ZM38.4456 432.76C38.239 432.76 38.0656 432.69 37.9256 432.55C37.7856 432.41 37.7156 432.237 37.7156 432.03C37.7156 431.823 37.7856 431.65 37.9256 431.51C38.0656 431.37 38.239 431.3 38.4456 431.3C38.6456 431.3 38.8156 431.37 38.9556 431.51C39.0956 431.65 39.1656 431.823 39.1656 432.03C39.1656 432.237 39.0956 432.41 38.9556 432.55C38.8156 432.69 38.6456 432.76 38.4456 432.76ZM39.0056 433.49V439H37.8656V433.49H39.0056ZM41.6323 434.42V437.47C41.6323 437.677 41.679 437.827 41.7723 437.92C41.8723 438.007 42.039 438.05 42.2723 438.05H42.9723V439H42.0723C41.559 439 41.1657 438.88 40.8923 438.64C40.619 438.4 40.4823 438.01 40.4823 437.47V434.42H39.8323V433.49H40.4823V432.12H41.6323V433.49H42.9723V434.42H41.6323ZM44.963 431.6V439H43.823V431.6H44.963ZM51.3098 436.11C51.3098 436.317 51.2964 436.503 51.2698 436.67H47.0598C47.0931 437.11 47.2564 437.463 47.5498 437.73C47.8431 437.997 48.2031 438.13 48.6298 438.13C49.2431 438.13 49.6764 437.873 49.9298 437.36H51.1598C50.9931 437.867 50.6898 438.283 50.2498 438.61C49.8164 438.93 49.2764 439.09 48.6298 439.09C48.1031 439.09 47.6298 438.973 47.2098 438.74C46.7964 438.5 46.4698 438.167 46.2298 437.74C45.9964 437.307 45.8798 436.807 45.8798 436.24C45.8798 435.673 45.9931 435.177 46.2198 434.75C46.4531 434.317 46.7764 433.983 47.1898 433.75C47.6098 433.517 48.0898 433.4 48.6298 433.4C49.1498 433.4 49.6131 433.513 50.0198 433.74C50.4264 433.967 50.7431 434.287 50.9698 434.7C51.1964 435.107 51.3098 435.577 51.3098 436.11ZM50.1198 435.75C50.1131 435.33 49.9631 434.993 49.6698 434.74C49.3764 434.487 49.0131 434.36 48.5798 434.36C48.1864 434.36 47.8498 434.487 47.5698 434.74C47.2898 434.987 47.1231 435.323 47.0698 435.75H50.1198ZM62.2493 434.9V435.86H54.7493V434.9H62.2493ZM65.7652 432.75V431.71H67.8452V439H66.6952V432.75H65.7652ZM69.2113 435.26C69.2113 434.107 69.4047 433.207 69.7913 432.56C70.1847 431.907 70.858 431.58 71.8113 431.58C72.7647 431.58 73.4347 431.907 73.8213 432.56C74.2147 433.207 74.4113 434.107 74.4113 435.26C74.4113 436.427 74.2147 437.34 73.8213 438C73.4347 438.653 72.7647 438.98 71.8113 438.98C70.858 438.98 70.1847 438.653 69.7913 438C69.4047 437.34 69.2113 436.427 69.2113 435.26ZM73.2913 435.26C73.2913 434.72 73.2547 434.263 73.1813 433.89C73.1147 433.517 72.9747 433.213 72.7613 432.98C72.548 432.74 72.2313 432.62 71.8113 432.62C71.3913 432.62 71.0747 432.74 70.8613 432.98C70.648 433.213 70.5047 433.517 70.4313 433.89C70.3647 434.263 70.3313 434.72 70.3313 435.26C70.3313 435.82 70.3647 436.29 70.4313 436.67C70.498 437.05 70.638 437.357 70.8513 437.59C71.0713 437.823 71.3913 437.94 71.8113 437.94C72.2313 437.94 72.548 437.823 72.7613 437.59C72.9813 437.357 73.1247 437.05 73.1913 436.67C73.258 436.29 73.2913 435.82 73.2913 435.26Z" fill="#1F1F1F"/>
<path d="M3.04 470.07C2.57333 470.07 2.15333 469.99 1.78 469.83C1.40667 469.663 1.11333 469.43 0.9 469.13C0.686667 468.83 0.58 468.48 0.58 468.08H1.8C1.82667 468.38 1.94333 468.627 2.15 468.82C2.36333 469.013 2.66 469.11 3.04 469.11C3.43333 469.11 3.74 469.017 3.96 468.83C4.18 468.637 4.29 468.39 4.29 468.09C4.29 467.857 4.22 467.667 4.08 467.52C3.94667 467.373 3.77667 467.26 3.57 467.18C3.37 467.1 3.09 467.013 2.73 466.92C2.27667 466.8 1.90667 466.68 1.62 466.56C1.34 466.433 1.1 466.24 0.9 465.98C0.7 465.72 0.6 465.373 0.6 464.94C0.6 464.54 0.7 464.19 0.9 463.89C1.1 463.59 1.38 463.36 1.74 463.2C2.1 463.04 2.51667 462.96 2.99 462.96C3.66333 462.96 4.21333 463.13 4.64 463.47C5.07333 463.803 5.31333 464.263 5.36 464.85H4.1C4.08 464.597 3.96 464.38 3.74 464.2C3.52 464.02 3.23 463.93 2.87 463.93C2.54333 463.93 2.27667 464.013 2.07 464.18C1.86333 464.347 1.76 464.587 1.76 464.9C1.76 465.113 1.82333 465.29 1.95 465.43C2.08333 465.563 2.25 465.67 2.45 465.75C2.65 465.83 2.92333 465.917 3.27 466.01C3.73 466.137 4.10333 466.263 4.39 466.39C4.68333 466.517 4.93 466.713 5.13 466.98C5.33667 467.24 5.44 467.59 5.44 468.03C5.44 468.383 5.34333 468.717 5.15 469.03C4.96333 469.343 4.68667 469.597 4.32 469.79C3.96 469.977 3.53333 470.07 3.04 470.07ZM7.91516 465.42V468.47C7.91516 468.677 7.96182 468.827 8.05516 468.92C8.15516 469.007 8.32182 469.05 8.55516 469.05H9.25516V470H8.35516C7.84182 470 7.44849 469.88 7.17516 469.64C6.90182 469.4 6.76516 469.01 6.76516 468.47V465.42H6.11516V464.49H6.76516V463.12H7.91516V464.49H9.25516V465.42H7.91516ZM9.72586 467.22C9.72586 466.667 9.83919 466.177 10.0659 465.75C10.2992 465.323 10.6125 464.993 11.0059 464.76C11.4059 464.52 11.8459 464.4 12.3259 464.4C12.7592 464.4 13.1359 464.487 13.4559 464.66C13.7825 464.827 14.0425 465.037 14.2359 465.29V464.49H15.3859V470H14.2359V469.18C14.0425 469.44 13.7792 469.657 13.4459 469.83C13.1125 470.003 12.7325 470.09 12.3059 470.09C11.8325 470.09 11.3992 469.97 11.0059 469.73C10.6125 469.483 10.2992 469.143 10.0659 468.71C9.83919 468.27 9.72586 467.773 9.72586 467.22ZM14.2359 467.24C14.2359 466.86 14.1559 466.53 13.9959 466.25C13.8425 465.97 13.6392 465.757 13.3859 465.61C13.1325 465.463 12.8592 465.39 12.5659 465.39C12.2725 465.39 11.9992 465.463 11.7459 465.61C11.4925 465.75 11.2859 465.96 11.1259 466.24C10.9725 466.513 10.8959 466.84 10.8959 467.22C10.8959 467.6 10.9725 467.933 11.1259 468.22C11.2859 468.507 11.4925 468.727 11.7459 468.88C12.0059 469.027 12.2792 469.1 12.5659 469.1C12.8592 469.1 13.1325 469.027 13.3859 468.88C13.6392 468.733 13.8425 468.52 13.9959 468.24C14.1559 467.953 14.2359 467.62 14.2359 467.24ZM18.0132 465.42V468.47C18.0132 468.677 18.0599 468.827 18.1532 468.92C18.2532 469.007 18.4199 469.05 18.6532 469.05H19.3532V470H18.4532C17.9399 470 17.5465 469.88 17.2732 469.64C16.9999 469.4 16.8632 469.01 16.8632 468.47V465.42H16.2132V464.49H16.8632V463.12H18.0132V464.49H19.3532V465.42H18.0132ZM25.1939 464.49V470H24.0539V469.35C23.8739 469.577 23.6372 469.757 23.3439 469.89C23.0572 470.017 22.7506 470.08 22.4239 470.08C21.9906 470.08 21.6006 469.99 21.2539 469.81C20.9139 469.63 20.6439 469.363 20.4439 469.01C20.2506 468.657 20.1539 468.23 20.1539 467.73V464.49H21.2839V467.56C21.2839 468.053 21.4072 468.433 21.6539 468.7C21.9006 468.96 22.2372 469.09 22.6639 469.09C23.0906 469.09 23.4272 468.96 23.6739 468.7C23.9272 468.433 24.0539 468.053 24.0539 467.56V464.49H25.1939ZM28.498 470.09C28.0647 470.09 27.6747 470.013 27.328 469.86C26.988 469.7 26.718 469.487 26.518 469.22C26.318 468.947 26.2114 468.643 26.198 468.31H27.378C27.398 468.543 27.508 468.74 27.708 468.9C27.9147 469.053 28.1714 469.13 28.478 469.13C28.798 469.13 29.0447 469.07 29.218 468.95C29.398 468.823 29.488 468.663 29.488 468.47C29.488 468.263 29.388 468.11 29.188 468.01C28.9947 467.91 28.6847 467.8 28.258 467.68C27.8447 467.567 27.508 467.457 27.248 467.35C26.988 467.243 26.7614 467.08 26.568 466.86C26.3814 466.64 26.288 466.35 26.288 465.99C26.288 465.697 26.3747 465.43 26.548 465.19C26.7214 464.943 26.968 464.75 27.288 464.61C27.6147 464.47 27.988 464.4 28.408 464.4C29.0347 464.4 29.538 464.56 29.918 464.88C30.3047 465.193 30.5114 465.623 30.538 466.17H29.398C29.378 465.923 29.278 465.727 29.098 465.58C28.918 465.433 28.6747 465.36 28.368 465.36C28.068 465.36 27.838 465.417 27.678 465.53C27.518 465.643 27.438 465.793 27.438 465.98C27.438 466.127 27.4914 466.25 27.598 466.35C27.7047 466.45 27.8347 466.53 27.988 466.59C28.1414 466.643 28.368 466.713 28.668 466.8C29.068 466.907 29.3947 467.017 29.648 467.13C29.908 467.237 30.1314 467.397 30.318 467.61C30.5047 467.823 30.6014 468.107 30.608 468.46C30.608 468.773 30.5214 469.053 30.348 469.3C30.1747 469.547 29.928 469.74 29.608 469.88C29.2947 470.02 28.9247 470.09 28.498 470.09ZM32.7798 465.31C32.9732 465.043 33.2365 464.827 33.5698 464.66C33.9098 464.487 34.2865 464.4 34.6998 464.4C35.1865 464.4 35.6265 464.517 36.0198 464.75C36.4132 464.983 36.7232 465.317 36.9498 465.75C37.1765 466.177 37.2898 466.667 37.2898 467.22C37.2898 467.773 37.1765 468.27 36.9498 468.71C36.7232 469.143 36.4098 469.483 36.0098 469.73C35.6165 469.97 35.1798 470.09 34.6998 470.09C34.2732 470.09 33.8932 470.007 33.5598 469.84C33.2332 469.673 32.9732 469.46 32.7798 469.2V470H31.6398V462.6H32.7798V465.31ZM36.1298 467.22C36.1298 466.84 36.0498 466.513 35.8898 466.24C35.7365 465.96 35.5298 465.75 35.2698 465.61C35.0165 465.463 34.7432 465.39 34.4498 465.39C34.1632 465.39 33.8898 465.463 33.6298 465.61C33.3765 465.757 33.1698 465.97 33.0098 466.25C32.8565 466.53 32.7798 466.86 32.7798 467.24C32.7798 467.62 32.8565 467.953 33.0098 468.24C33.1698 468.52 33.3765 468.733 33.6298 468.88C33.8898 469.027 34.1632 469.1 34.4498 469.1C34.7432 469.1 35.0165 469.027 35.2698 468.88C35.5298 468.727 35.7365 468.507 35.8898 468.22C36.0498 467.933 36.1298 467.6 36.1298 467.22ZM37.8372 467.22C37.8372 466.667 37.9505 466.177 38.1772 465.75C38.4105 465.323 38.7239 464.993 39.1172 464.76C39.5172 464.52 39.9572 464.4 40.4372 464.4C40.8705 464.4 41.2472 464.487 41.5672 464.66C41.8939 464.827 42.1539 465.037 42.3472 465.29V464.49H43.4972V470H42.3472V469.18C42.1539 469.44 41.8905 469.657 41.5572 469.83C41.2239 470.003 40.8439 470.09 40.4172 470.09C39.9439 470.09 39.5105 469.97 39.1172 469.73C38.7239 469.483 38.4105 469.143 38.1772 468.71C37.9505 468.27 37.8372 467.773 37.8372 467.22ZM42.3472 467.24C42.3472 466.86 42.2672 466.53 42.1072 466.25C41.9539 465.97 41.7505 465.757 41.4972 465.61C41.2439 465.463 40.9705 465.39 40.6772 465.39C40.3839 465.39 40.1105 465.463 39.8572 465.61C39.6039 465.75 39.3972 465.96 39.2372 466.24C39.0839 466.513 39.0072 466.84 39.0072 467.22C39.0072 467.6 39.0839 467.933 39.2372 468.22C39.3972 468.507 39.6039 468.727 39.8572 468.88C40.1172 469.027 40.3905 469.1 40.6772 469.1C40.9705 469.1 41.2439 469.027 41.4972 468.88C41.7505 468.733 41.9539 468.52 42.1072 468.24C42.2672 467.953 42.3472 467.62 42.3472 467.24ZM45.9345 465.29C46.1012 465.01 46.3212 464.793 46.5945 464.64C46.8745 464.48 47.2045 464.4 47.5845 464.4V465.58H47.2945C46.8479 465.58 46.5079 465.693 46.2745 465.92C46.0479 466.147 45.9345 466.54 45.9345 467.1V470H44.7945V464.49H45.9345V465.29ZM53.1001 463.05C53.8401 463.05 54.4867 463.193 55.0401 463.48C55.6001 463.76 56.0301 464.167 56.3301 464.7C56.6367 465.227 56.7901 465.843 56.7901 466.55C56.7901 467.257 56.6367 467.87 56.3301 468.39C56.0301 468.91 55.6001 469.31 55.0401 469.59C54.4867 469.863 53.8401 470 53.1001 470H50.8301V463.05H53.1001ZM53.1001 469.07C53.9134 469.07 54.5367 468.85 54.9701 468.41C55.4034 467.97 55.6201 467.35 55.6201 466.55C55.6201 465.743 55.4034 465.113 54.9701 464.66C54.5367 464.207 53.9134 463.98 53.1001 463.98H51.9701V469.07H53.1001ZM62.7699 467.11C62.7699 467.317 62.7566 467.503 62.7299 467.67H58.5199C58.5533 468.11 58.7166 468.463 59.0099 468.73C59.3033 468.997 59.6633 469.13 60.0899 469.13C60.7033 469.13 61.1366 468.873 61.3899 468.36H62.6199C62.4533 468.867 62.1499 469.283 61.7099 469.61C61.2766 469.93 60.7366 470.09 60.0899 470.09C59.5633 470.09 59.0899 469.973 58.6699 469.74C58.2566 469.5 57.9299 469.167 57.6899 468.74C57.4566 468.307 57.3399 467.807 57.3399 467.24C57.3399 466.673 57.4533 466.177 57.6799 465.75C57.9133 465.317 58.2366 464.983 58.6499 464.75C59.0699 464.517 59.5499 464.4 60.0899 464.4C60.6099 464.4 61.0733 464.513 61.4799 464.74C61.8866 464.967 62.2033 465.287 62.4299 465.7C62.6566 466.107 62.7699 466.577 62.7699 467.11ZM61.5799 466.75C61.5733 466.33 61.4233 465.993 61.1299 465.74C60.8366 465.487 60.4733 465.36 60.0399 465.36C59.6466 465.36 59.3099 465.487 59.0299 465.74C58.7499 465.987 58.5833 466.323 58.5299 466.75H61.5799ZM65.6918 470.09C65.2585 470.09 64.8685 470.013 64.5218 469.86C64.1818 469.7 63.9118 469.487 63.7118 469.22C63.5118 468.947 63.4051 468.643 63.3918 468.31H64.5718C64.5918 468.543 64.7018 468.74 64.9018 468.9C65.1085 469.053 65.3651 469.13 65.6718 469.13C65.9918 469.13 66.2385 469.07 66.4118 468.95C66.5918 468.823 66.6818 468.663 66.6818 468.47C66.6818 468.263 66.5818 468.11 66.3818 468.01C66.1885 467.91 65.8785 467.8 65.4518 467.68C65.0385 467.567 64.7018 467.457 64.4418 467.35C64.1818 467.243 63.9551 467.08 63.7618 466.86C63.5751 466.64 63.4818 466.35 63.4818 465.99C63.4818 465.697 63.5685 465.43 63.7418 465.19C63.9151 464.943 64.1618 464.75 64.4818 464.61C64.8085 464.47 65.1818 464.4 65.6018 464.4C66.2285 464.4 66.7318 464.56 67.1118 464.88C67.4985 465.193 67.7051 465.623 67.7318 466.17H66.5918C66.5718 465.923 66.4718 465.727 66.2918 465.58C66.1118 465.433 65.8685 465.36 65.5618 465.36C65.2618 465.36 65.0318 465.417 64.8718 465.53C64.7118 465.643 64.6318 465.793 64.6318 465.98C64.6318 466.127 64.6851 466.25 64.7918 466.35C64.8985 466.45 65.0285 466.53 65.1818 466.59C65.3351 466.643 65.5618 466.713 65.8618 466.8C66.2618 466.907 66.5885 467.017 66.8418 467.13C67.1018 467.237 67.3251 467.397 67.5118 467.61C67.6985 467.823 67.7951 468.107 67.8018 468.46C67.8018 468.773 67.7151 469.053 67.5418 469.3C67.3685 469.547 67.1218 469.74 66.8018 469.88C66.4885 470.02 66.1185 470.09 65.6918 470.09ZM68.4536 467.24C68.4536 466.673 68.5669 466.177 68.7936 465.75C69.0269 465.317 69.3469 464.983 69.7536 464.75C70.1603 464.517 70.6269 464.4 71.1536 464.4C71.8203 464.4 72.3703 464.56 72.8036 464.88C73.2436 465.193 73.5403 465.643 73.6936 466.23H72.4636C72.3636 465.957 72.2036 465.743 71.9836 465.59C71.7636 465.437 71.4869 465.36 71.1536 465.36C70.6869 465.36 70.3136 465.527 70.0336 465.86C69.7603 466.187 69.6236 466.647 69.6236 467.24C69.6236 467.833 69.7603 468.297 70.0336 468.63C70.3136 468.963 70.6869 469.13 71.1536 469.13C71.8136 469.13 72.2503 468.84 72.4636 468.26H73.6936C73.5336 468.82 73.2336 469.267 72.7936 469.6C72.3536 469.927 71.8069 470.09 71.1536 470.09C70.6269 470.09 70.1603 469.973 69.7536 469.74C69.3469 469.5 69.0269 469.167 68.7936 468.74C68.5669 468.307 68.4536 467.807 68.4536 467.24ZM84.6473 465.9V466.86H77.1473V465.9H84.6473ZM88.1633 463.75V462.71H90.2433V470H89.0933V463.75H88.1633ZM91.6094 466.26C91.6094 465.107 91.8027 464.207 92.1894 463.56C92.5827 462.907 93.256 462.58 94.2094 462.58C95.1627 462.58 95.8327 462.907 96.2194 463.56C96.6127 464.207 96.8094 465.107 96.8094 466.26C96.8094 467.427 96.6127 468.34 96.2194 469C95.8327 469.653 95.1627 469.98 94.2094 469.98C93.256 469.98 92.5827 469.653 92.1894 469C91.8027 468.34 91.6094 467.427 91.6094 466.26ZM95.6894 466.26C95.6894 465.72 95.6527 465.263 95.5794 464.89C95.5127 464.517 95.3727 464.213 95.1594 463.98C94.946 463.74 94.6294 463.62 94.2094 463.62C93.7894 463.62 93.4727 463.74 93.2594 463.98C93.046 464.213 92.9027 464.517 92.8294 464.89C92.7627 465.263 92.7294 465.72 92.7294 466.26C92.7294 466.82 92.7627 467.29 92.8294 467.67C92.896 468.05 93.036 468.357 93.2494 468.59C93.4694 468.823 93.7894 468.94 94.2094 468.94C94.6294 468.94 94.946 468.823 95.1594 468.59C95.3794 468.357 95.5227 468.05 95.5894 467.67C95.656 467.29 95.6894 466.82 95.6894 466.26Z" fill="#1F1F1F"/>
<path d="M4.192 493.44V494.184H2.712V499H1.8V494.184H0.312V493.44H4.192ZM4.65163 496.776C4.65163 496.333 4.74229 495.941 4.92363 495.6C5.11029 495.259 5.36096 494.995 5.67563 494.808C5.99563 494.616 6.34763 494.52 6.73163 494.52C7.07829 494.52 7.37963 494.589 7.63563 494.728C7.89696 494.861 8.10496 495.029 8.25963 495.232V494.592H9.17963V499H8.25963V498.344C8.10496 498.552 7.89429 498.725 7.62763 498.864C7.36096 499.003 7.05696 499.072 6.71563 499.072C6.33696 499.072 5.99029 498.976 5.67563 498.784C5.36096 498.587 5.11029 498.315 4.92363 497.968C4.74229 497.616 4.65163 497.219 4.65163 496.776ZM8.25963 496.792C8.25963 496.488 8.19563 496.224 8.06763 496C7.94496 495.776 7.78229 495.605 7.57963 495.488C7.37696 495.371 7.15829 495.312 6.92363 495.312C6.68896 495.312 6.47029 495.371 6.26763 495.488C6.06496 495.6 5.89963 495.768 5.77163 495.992C5.64896 496.211 5.58763 496.472 5.58763 496.776C5.58763 497.08 5.64896 497.347 5.77163 497.576C5.89963 497.805 6.06496 497.981 6.26763 498.104C6.47563 498.221 6.69429 498.28 6.92363 498.28C7.15829 498.28 7.37696 498.221 7.57963 498.104C7.78229 497.987 7.94496 497.816 8.06763 497.592C8.19563 497.363 8.25963 497.096 8.25963 496.792ZM11.1295 495.248C11.2842 495.035 11.4948 494.861 11.7615 494.728C12.0335 494.589 12.3348 494.52 12.6655 494.52C13.0548 494.52 13.4068 494.613 13.7215 494.8C14.0362 494.987 14.2842 495.253 14.4655 495.6C14.6468 495.941 14.7375 496.333 14.7375 496.776C14.7375 497.219 14.6468 497.616 14.4655 497.968C14.2842 498.315 14.0335 498.587 13.7135 498.784C13.3988 498.976 13.0495 499.072 12.6655 499.072C12.3242 499.072 12.0202 499.005 11.7535 498.872C11.4922 498.739 11.2842 498.568 11.1295 498.36V499H10.2175V493.08H11.1295V495.248ZM13.8095 496.776C13.8095 496.472 13.7455 496.211 13.6175 495.992C13.4948 495.768 13.3295 495.6 13.1215 495.488C12.9188 495.371 12.7002 495.312 12.4655 495.312C12.2362 495.312 12.0175 495.371 11.8095 495.488C11.6068 495.605 11.4415 495.776 11.3135 496C11.1908 496.224 11.1295 496.488 11.1295 496.792C11.1295 497.096 11.1908 497.363 11.3135 497.592C11.4415 497.816 11.6068 497.987 11.8095 498.104C12.0175 498.221 12.2362 498.28 12.4655 498.28C12.7002 498.28 12.9188 498.221 13.1215 498.104C13.3295 497.981 13.4948 497.805 13.6175 497.576C13.7455 497.347 13.8095 497.08 13.8095 496.776ZM19.2295 499.056C18.8562 499.056 18.5202 498.992 18.2215 498.864C17.9228 498.731 17.6882 498.544 17.5175 498.304C17.3468 498.064 17.2615 497.784 17.2615 497.464H18.2375C18.2588 497.704 18.3522 497.901 18.5175 498.056C18.6882 498.211 18.9255 498.288 19.2295 498.288C19.5442 498.288 19.7895 498.213 19.9655 498.064C20.1415 497.909 20.2295 497.712 20.2295 497.472C20.2295 497.285 20.1735 497.133 20.0615 497.016C19.9548 496.899 19.8188 496.808 19.6535 496.744C19.4935 496.68 19.2695 496.611 18.9815 496.536C18.6188 496.44 18.3228 496.344 18.0935 496.248C17.8695 496.147 17.6775 495.992 17.5175 495.784C17.3575 495.576 17.2775 495.299 17.2775 494.952C17.2775 494.632 17.3575 494.352 17.5175 494.112C17.6775 493.872 17.9015 493.688 18.1895 493.56C18.4775 493.432 18.8108 493.368 19.1895 493.368C19.7282 493.368 20.1682 493.504 20.5095 493.776C20.8562 494.043 21.0482 494.411 21.0855 494.88H20.0775C20.0615 494.677 19.9655 494.504 19.7895 494.36C19.6135 494.216 19.3815 494.144 19.0935 494.144C18.8322 494.144 18.6188 494.211 18.4535 494.344C18.2882 494.477 18.2055 494.669 18.2055 494.92C18.2055 495.091 18.2562 495.232 18.3575 495.344C18.4642 495.451 18.5975 495.536 18.7575 495.6C18.9175 495.664 19.1362 495.733 19.4135 495.808C19.7815 495.909 20.0802 496.011 20.3095 496.112C20.5442 496.213 20.7415 496.371 20.9015 496.584C21.0668 496.792 21.1495 497.072 21.1495 497.424C21.1495 497.707 21.0722 497.973 20.9175 498.224C20.7682 498.475 20.5468 498.677 20.2535 498.832C19.9655 498.981 19.6242 499.056 19.2295 499.056ZM27.4016 494.52C27.7483 494.52 28.0576 494.592 28.3296 494.736C28.607 494.88 28.823 495.093 28.9776 495.376C29.1376 495.659 29.2176 496 29.2176 496.4V499H28.3136V496.536C28.3136 496.141 28.215 495.84 28.0176 495.632C27.8203 495.419 27.551 495.312 27.2096 495.312C26.8683 495.312 26.5963 495.419 26.3936 495.632C26.1963 495.84 26.0976 496.141 26.0976 496.536V499H25.1936V496.536C25.1936 496.141 25.095 495.84 24.8976 495.632C24.7003 495.419 24.431 495.312 24.0896 495.312C23.7483 495.312 23.4763 495.419 23.2736 495.632C23.0763 495.84 22.9776 496.141 22.9776 496.536V499H22.0656V494.592H22.9776V495.096C23.127 494.915 23.3163 494.773 23.5456 494.672C23.775 494.571 24.0203 494.52 24.2816 494.52C24.6336 494.52 24.9483 494.595 25.2256 494.744C25.503 494.893 25.7163 495.109 25.8656 495.392C25.999 495.125 26.207 494.915 26.4896 494.76C26.7723 494.6 27.0763 494.52 27.4016 494.52ZM29.9141 496.776C29.9141 496.333 30.0048 495.941 30.1861 495.6C30.3728 495.259 30.6235 494.995 30.9381 494.808C31.2581 494.616 31.6101 494.52 31.9941 494.52C32.3408 494.52 32.6421 494.589 32.8981 494.728C33.1595 494.861 33.3675 495.029 33.5221 495.232V494.592H34.4421V499H33.5221V498.344C33.3675 498.552 33.1568 498.725 32.8901 498.864C32.6235 499.003 32.3195 499.072 31.9781 499.072C31.5995 499.072 31.2528 498.976 30.9381 498.784C30.6235 498.587 30.3728 498.315 30.1861 497.968C30.0048 497.616 29.9141 497.219 29.9141 496.776ZM33.5221 496.792C33.5221 496.488 33.4581 496.224 33.3301 496C33.2075 495.776 33.0448 495.605 32.8421 495.488C32.6395 495.371 32.4208 495.312 32.1861 495.312C31.9515 495.312 31.7328 495.371 31.5301 495.488C31.3275 495.6 31.1621 495.768 31.0341 495.992C30.9115 496.211 30.8501 496.472 30.8501 496.776C30.8501 497.08 30.9115 497.347 31.0341 497.576C31.1621 497.805 31.3275 497.981 31.5301 498.104C31.7381 498.221 31.9568 498.28 32.1861 498.28C32.4208 498.28 32.6395 498.221 32.8421 498.104C33.0448 497.987 33.2075 497.816 33.3301 497.592C33.4581 497.363 33.5221 497.096 33.5221 496.792ZM36.392 493.08V499H35.48V493.08H36.392ZM38.3414 493.08V499H37.4294V493.08H38.3414ZM47.3929 495.72V496.488H41.3929V495.72H47.3929ZM51.3096 495.952C50.755 495.675 50.4776 495.237 50.4776 494.64C50.4776 494.352 50.5496 494.088 50.6936 493.848C50.8376 493.608 51.0536 493.419 51.3416 493.28C51.6296 493.136 51.9816 493.064 52.3976 493.064C52.8083 493.064 53.1576 493.136 53.4456 493.28C53.739 493.419 53.9576 493.608 54.1016 493.848C54.2456 494.088 54.3176 494.352 54.3176 494.64C54.3176 494.939 54.2403 495.203 54.0856 495.432C53.9363 495.656 53.7363 495.829 53.4856 495.952C53.7896 496.064 54.0296 496.248 54.2056 496.504C54.3816 496.755 54.4696 497.051 54.4696 497.392C54.4696 497.739 54.3816 498.045 54.2056 498.312C54.0296 498.579 53.7843 498.784 53.4696 498.928C53.155 499.072 52.7976 499.144 52.3976 499.144C51.9976 499.144 51.6403 499.072 51.3256 498.928C51.0163 498.784 50.7736 498.579 50.5976 498.312C50.4216 498.045 50.3336 497.739 50.3336 497.392C50.3336 497.045 50.4216 496.747 50.5976 496.496C50.7736 496.245 51.011 496.064 51.3096 495.952ZM53.4456 494.752C53.4456 494.453 53.3523 494.224 53.1656 494.064C52.979 493.904 52.723 493.824 52.3976 493.824C52.0776 493.824 51.8243 493.904 51.6376 494.064C51.451 494.224 51.3576 494.456 51.3576 494.76C51.3576 495.027 51.4536 495.245 51.6456 495.416C51.843 495.581 52.0936 495.664 52.3976 495.664C52.7016 495.664 52.9523 495.579 53.1496 495.408C53.347 495.237 53.4456 495.019 53.4456 494.752ZM52.3976 496.352C52.0456 496.352 51.7576 496.44 51.5336 496.616C51.315 496.787 51.2056 497.035 51.2056 497.36C51.2056 497.664 51.3123 497.912 51.5256 498.104C51.739 498.291 52.0296 498.384 52.3976 498.384C52.7603 498.384 53.0456 498.288 53.2536 498.096C53.467 497.904 53.5736 497.659 53.5736 497.36C53.5736 497.04 53.4643 496.792 53.2456 496.616C53.0323 496.44 52.7496 496.352 52.3976 496.352Z" fill="#1F1F1F"/>
<path d="M4.048 521.424V522.016H2.528V527H1.8V522.016H0.272V521.424H4.048ZM4.51213 524.792C4.51213 524.344 4.60279 523.952 4.78413 523.616C4.96546 523.275 5.21346 523.011 5.52813 522.824C5.84813 522.637 6.20279 522.544 6.59213 522.544C6.97613 522.544 7.30946 522.627 7.59213 522.792C7.87479 522.957 8.08546 523.165 8.22413 523.416V522.616H8.96013V527H8.22413V526.184C8.08013 526.44 7.86413 526.653 7.57613 526.824C7.29346 526.989 6.96279 527.072 6.58413 527.072C6.19479 527.072 5.84279 526.976 5.52813 526.784C5.21346 526.592 4.96546 526.323 4.78413 525.976C4.60279 525.629 4.51213 525.235 4.51213 524.792ZM8.22413 524.8C8.22413 524.469 8.15746 524.181 8.02413 523.936C7.89079 523.691 7.70946 523.504 7.48013 523.376C7.25613 523.243 7.00813 523.176 6.73613 523.176C6.46413 523.176 6.21613 523.24 5.99213 523.368C5.76813 523.496 5.58946 523.683 5.45613 523.928C5.32279 524.173 5.25613 524.461 5.25613 524.792C5.25613 525.128 5.32279 525.421 5.45613 525.672C5.58946 525.917 5.76813 526.107 5.99213 526.24C6.21613 526.368 6.46413 526.432 6.73613 526.432C7.00813 526.432 7.25613 526.368 7.48013 526.24C7.70946 526.107 7.89079 525.917 8.02413 525.672C8.15746 525.421 8.22413 525.131 8.22413 524.8ZM11.8384 522.544C12.217 522.544 12.5477 522.627 12.8304 522.792C13.1184 522.957 13.3317 523.165 13.4704 523.416V522.616H14.2064V527.096C14.2064 527.496 14.121 527.851 13.9504 528.16C13.7797 528.475 13.5344 528.72 13.2144 528.896C12.8997 529.072 12.5317 529.16 12.1104 529.16C11.5344 529.16 11.0544 529.024 10.6704 528.752C10.2864 528.48 10.0597 528.109 9.99038 527.64H10.7104C10.7904 527.907 10.9557 528.12 11.2064 528.28C11.457 528.445 11.7584 528.528 12.1104 528.528C12.5104 528.528 12.8357 528.403 13.0864 528.152C13.3424 527.901 13.4704 527.549 13.4704 527.096V526.176C13.3264 526.432 13.113 526.645 12.8304 526.816C12.5477 526.987 12.217 527.072 11.8384 527.072C11.449 527.072 11.0944 526.976 10.7744 526.784C10.4597 526.592 10.2117 526.323 10.0304 525.976C9.84904 525.629 9.75838 525.235 9.75838 524.792C9.75838 524.344 9.84904 523.952 10.0304 523.616C10.2117 523.275 10.4597 523.011 10.7744 522.824C11.0944 522.637 11.449 522.544 11.8384 522.544ZM13.4704 524.8C13.4704 524.469 13.4037 524.181 13.2704 523.936C13.137 523.691 12.9557 523.504 12.7264 523.376C12.5024 523.243 12.2544 523.176 11.9824 523.176C11.7104 523.176 11.4624 523.24 11.2384 523.368C11.0144 523.496 10.8357 523.683 10.7024 523.928C10.569 524.173 10.5024 524.461 10.5024 524.792C10.5024 525.128 10.569 525.421 10.7024 525.672C10.8357 525.917 11.0144 526.107 11.2384 526.24C11.4624 526.368 11.7104 526.432 11.9824 526.432C12.2544 526.432 12.5024 526.368 12.7264 526.24C12.9557 526.107 13.137 525.917 13.2704 525.672C13.4037 525.421 13.4704 525.131 13.4704 524.8ZM20.6814 521.424V522.016H19.1614V527H18.4334V522.016H16.9054V521.424H20.6814ZM21.7936 521.904C21.6549 521.904 21.5376 521.856 21.4416 521.76C21.3456 521.664 21.2976 521.547 21.2976 521.408C21.2976 521.269 21.3456 521.152 21.4416 521.056C21.5376 520.96 21.6549 520.912 21.7936 520.912C21.9269 520.912 22.0389 520.96 22.1296 521.056C22.2256 521.152 22.2736 521.269 22.2736 521.408C22.2736 521.547 22.2256 521.664 22.1296 521.76C22.0389 521.856 21.9269 521.904 21.7936 521.904ZM22.1456 522.616V527H21.4176V522.616H22.1456ZM24.1143 523.216V525.8C24.1143 526.013 24.1596 526.165 24.2503 526.256C24.341 526.341 24.4983 526.384 24.7223 526.384H25.2583V527H24.6023C24.197 527 23.893 526.907 23.6903 526.72C23.4876 526.533 23.3863 526.227 23.3863 525.8V523.216H22.8183V522.616H23.3863V521.512H24.1143V522.616H25.2583V523.216H24.1143ZM26.7084 521.08V527H25.9804V521.08H26.7084ZM31.7891 524.64C31.7891 524.779 31.7811 524.925 31.7651 525.08H28.2611C28.2878 525.512 28.4345 525.851 28.7011 526.096C28.9731 526.336 29.3011 526.456 29.6851 526.456C29.9998 526.456 30.2611 526.384 30.4691 526.24C30.6825 526.091 30.8318 525.893 30.9171 525.648H31.7011C31.5838 526.069 31.3491 526.413 30.9971 526.68C30.6451 526.941 30.2078 527.072 29.6851 527.072C29.2691 527.072 28.8958 526.979 28.5651 526.792C28.2398 526.605 27.9838 526.341 27.7971 526C27.6105 525.653 27.5171 525.253 27.5171 524.8C27.5171 524.347 27.6078 523.949 27.7891 523.608C27.9705 523.267 28.2238 523.005 28.5491 522.824C28.8798 522.637 29.2585 522.544 29.6851 522.544C30.1011 522.544 30.4691 522.635 30.7891 522.816C31.1091 522.997 31.3545 523.248 31.5251 523.568C31.7011 523.883 31.7891 524.24 31.7891 524.64ZM31.0371 524.488C31.0371 524.211 30.9758 523.973 30.8531 523.776C30.7305 523.573 30.5625 523.421 30.3491 523.32C30.1411 523.213 29.9091 523.16 29.6531 523.16C29.2851 523.16 28.9705 523.277 28.7091 523.512C28.4531 523.747 28.3065 524.072 28.2691 524.488H31.0371ZM40.4189 523.76V524.376H34.5549V523.76H40.4189ZM44.3898 523.992C44.0911 523.875 43.8618 523.704 43.7018 523.48C43.5418 523.256 43.4618 522.984 43.4618 522.664C43.4618 522.376 43.5338 522.117 43.6778 521.888C43.8218 521.653 44.0351 521.469 44.3178 521.336C44.6058 521.197 44.9525 521.128 45.3578 521.128C45.7631 521.128 46.1071 521.197 46.3898 521.336C46.6778 521.469 46.8938 521.653 47.0378 521.888C47.1871 522.117 47.2618 522.376 47.2618 522.664C47.2618 522.973 47.1791 523.245 47.0138 523.48C46.8485 523.709 46.6218 523.88 46.3338 523.992C46.6645 524.093 46.9258 524.272 47.1178 524.528C47.3151 524.779 47.4138 525.083 47.4138 525.44C47.4138 525.787 47.3285 526.091 47.1578 526.352C46.9871 526.608 46.7445 526.808 46.4298 526.952C46.1205 527.091 45.7631 527.16 45.3578 527.16C44.9525 527.16 44.5951 527.091 44.2858 526.952C43.9818 526.808 43.7445 526.608 43.5738 526.352C43.4031 526.091 43.3178 525.787 43.3178 525.44C43.3178 525.083 43.4138 524.776 43.6058 524.52C43.7978 524.264 44.0591 524.088 44.3898 523.992ZM46.5578 522.752C46.5578 522.427 46.4511 522.176 46.2378 522C46.0245 521.824 45.7311 521.736 45.3578 521.736C44.9898 521.736 44.6991 521.824 44.4858 522C44.2725 522.176 44.1658 522.429 44.1658 522.76C44.1658 523.059 44.2751 523.299 44.4938 523.48C44.7178 523.661 45.0058 523.752 45.3578 523.752C45.7151 523.752 46.0031 523.661 46.2218 523.48C46.4458 523.293 46.5578 523.051 46.5578 522.752ZM45.3578 524.312C44.9631 524.312 44.6405 524.405 44.3898 524.592C44.1391 524.773 44.0138 525.048 44.0138 525.416C44.0138 525.757 44.1338 526.032 44.3738 526.24C44.6191 526.448 44.9471 526.552 45.3578 526.552C45.7685 526.552 46.0938 526.448 46.3338 526.24C46.5738 526.032 46.6938 525.757 46.6938 525.416C46.6938 525.059 46.5711 524.787 46.3258 524.6C46.0805 524.408 45.7578 524.312 45.3578 524.312Z" fill="#1F1F1F"/>
</svg>
